<svg version="1.1" xmlns="http://www.w3.org/2000/svg" xmlns:xlink="http://www.w3.org/1999/xlink" width="1022.2009869151445" height="560"><defs/><g><g transform="translate(-286.08471865126177,47.67857360839844)"><rect fill="#FFFFFF" stroke="none" x="286.08471865126177" y="-47.67857360839844" width="1121" height="747"/><rect fill="#ffffff" stroke="none" x="286.08471865126177" y="-47.67857360839844" width="1121" height="747"/><path fill="none" stroke="#c7b7c7" paint-order="fill stroke markers" d=" M 328.10643606423514 157.0800384001726 C 306.58257509288575 201.18277761242996 307.8485958163561 332.85798488746684 330.2164706033524 376.5387171919008" stroke-miterlimit="10" stroke-width="4"/><path fill="#c7b7c7" stroke="none" paint-order="stroke fill markers" d=" M 333.4217909613532 383.86851401054355 L 319.68135342670877 372.4142407312589 L 334.3409470639943 366.0036000152572 L 333.4217909613532 383.86851401054355 Z"/><path fill="none" stroke="#c7b7c7" paint-order="fill stroke markers" d=" M 346.4649750685772 383.5628143830304 C 367.9888360399266 339.46007517077305 366.7228153164563 207.78486789573623 344.35494052946007 164.10413559130234" stroke-miterlimit="10" stroke-width="4"/><path fill="#c7b7c7" stroke="none" paint-order="stroke fill markers" d=" M 341.1496201714593 156.77433877265958 L 354.8900577061036 168.2286120519443 L 340.2304640688181 174.6392527679459 L 341.1496201714593 156.77433877265958 Z"/><path fill="none" stroke="#c7b7c7" paint-order="fill stroke markers" d=" M 354.92016250159355 404.7892444326529 C 403.2788412604036 429.303621854045 548.7569231872183 430.10771315481395 597.383632379618 406.1293966006012" stroke-miterlimit="10" stroke-width="4"/><path fill="#c7b7c7" stroke="none" paint-order="stroke fill markers" d=" M 604.7454763990819 402.99838196743787 L 593.1528029933173 416.6222552532285 L 586.8907737269907 401.8985672143006 L 604.7454763990819 402.99838196743787 Z"/><path fill="none" stroke="#c7b7c7" paint-order="fill stroke markers" d=" M 604.651248631219 389.8536083505502 C 556.2925698724089 365.339230929158 410.8144879455942 364.535139628389 362.18777875319444 388.5134561826018" stroke-miterlimit="10" stroke-width="4"/><path fill="#c7b7c7" stroke="none" paint-order="stroke fill markers" d=" M 354.8259347337305 391.6444708157651 L 366.41860813949506 378.0205975299745 L 372.6806374058217 392.7442855689024 L 354.8259347337305 391.6444708157651 Z"/><path fill="none" stroke="#c7b7c7" paint-order="fill stroke markers" d=" M 625.8595821810076 381.7343037741695 C 648.2714858416772 338.8510794831592 650.6001854780719 209.03705679193078 629.7407482416654 165.37759928878887" stroke-miterlimit="10" stroke-width="4"/><path fill="#c7b7c7" stroke="none" paint-order="stroke fill markers" d=" M 626.744065358673 157.96005982487094 L 640.1549705885759 169.79845586971433 L 625.31989166074 175.79182163569928 L 626.744065358673 157.96005982487094 Z"/><path fill="none" stroke="#c7b7c7" paint-order="fill stroke markers" d=" M 613.7118289518044 157.90854900903338 C 591.2999252911347 200.79177330004381 588.9712256547402 330.6057959912724 609.8306628911469 374.2652534944143" stroke-miterlimit="10" stroke-width="4"/><path fill="#c7b7c7" stroke="none" paint-order="stroke fill markers" d=" M 612.8273457741393 381.68279295833224 L 599.4164405442365 369.84439691348877 L 614.2515194720723 363.8510311475039 L 612.8273457741393 381.68279295833224 Z"/><path fill="none" stroke="#c7b7c7" paint-order="fill stroke markers" d=" M 605.7271988904716 136.68441777575916 C 556.2340258166454 110.94713939278813 406.565676379897 108.56947896224925 356.2799498292244 132.72165039152767" stroke-miterlimit="10" stroke-width="4"/><path fill="#c7b7c7" stroke="none" paint-order="stroke fill markers" d=" M 348.8902683558281 135.78638655011355 L 360.60489514403474 122.26723275954552 L 366.73436746120655 137.04659570633808 L 348.8902683558281 135.78638655011355 Z"/><path fill="none" stroke="#c7b7c7" paint-order="fill stroke markers" d=" M 348.8442122423409 148.95843500744394 C 398.33738531616723 174.69571339041497 548.0057347529155 177.07337382095383 598.2914613035881 152.92120239167542" stroke-miterlimit="10" stroke-width="4"/><path fill="#c7b7c7" stroke="none" paint-order="stroke fill markers" d=" M 605.6811427769844 149.85646623308952 L 593.9665159887778 163.3756200236576 L 587.837043671606 148.59625707686504 L 605.6811427769844 149.85646623308952 Z"/><path fill="none" stroke="#c7b7c7" paint-order="fill stroke markers" d=" M 340.65144561172343 157.00057329036395 C 368.57382598823403 229.01306498310322 522.0025289231465 368.33618859386473 596.3659505032443 389.20577930829984" stroke-miterlimit="10" stroke-width="4"/><path fill="#c7b7c7" stroke="none" paint-order="stroke fill markers" d=" M 603.9735282215272 391.68060480927676 L 586.2835472839845 394.33853152560573 L 591.2331982859384 379.12337608904 L 603.9735282215272 391.68060480927676 Z"/><path fill="none" stroke="#c7b7c7" paint-order="fill stroke markers" d=" M 612.919965521089 381.6422794928392 C 584.9975851445785 309.6297878000999 431.56888220966596 170.3066641893383 357.2054606295682 149.4370734749032" stroke-miterlimit="10" stroke-width="4"/><path fill="#c7b7c7" stroke="none" paint-order="stroke fill markers" d=" M 349.59788291128535 146.96224797392628 L 367.28786384882807 144.30432125759722 L 362.3382128468742 159.51947669416302 L 349.59788291128535 146.96224797392628 Z"/><path fill="none" stroke="#c7b7c7" paint-order="fill stroke markers" d=" M 355.5459784766381 393.51267700062215 C 429.41451642657523 373.41240972676167 582.5786867777919 236.529522729572 610.8195957286658 165.37453200530598" stroke-miterlimit="10" stroke-width="4"/><path fill="#c7b7c7" stroke="none" paint-order="stroke fill markers" d=" M 614.0748248747122 158.0667633166617 L 614.8721352712637 175.93752983999673 L 600.2565978939751 169.42707154790384 L 614.0748248747122 158.0667633166617 Z"/><path fill="none" stroke="#c7b7c7" paint-order="fill stroke markers" d=" M 605.0254326561744 148.13017578258095 C 531.1568947062373 168.2304430564414 377.9927243550205 305.1133300536311 349.75181540414656 376.2683207778971" stroke-miterlimit="10" stroke-width="4"/><path fill="#c7b7c7" stroke="none" paint-order="stroke fill markers" d=" M 346.49658625810014 383.57608946654136 L 345.6992758615487 365.7053229432064 L 360.31481323883725 372.21578123529923 L 346.49658625810014 383.57608946654136 Z"/><path fill="none" stroke="#c7b7c7" paint-order="fill stroke markers" d=" M 949.7057127007174 260.2346319164643 C 973.0991486322357 244.4146963666087 1010.2594722080529 178.37472792913326 1011.6395853270794 150.16801785400526" stroke-miterlimit="10" stroke-width="4"/><path fill="#c7b7c7" stroke="none" paint-order="stroke fill markers" d=" M 1012.7937982480901 142.25171868501397 L 1018.4016715750599 159.23852994400718 L 1002.5690732370774 156.93010410198585 L 1012.7937982480901 142.25171868501397 Z"/><path fill="none" stroke="#c7b7c7" paint-order="fill stroke markers" d=" M 1001.8656984320951 136.40822086673882 C 978.4722625005768 152.2281564165944 941.3119389247594 218.26812485406984 939.9318258057328 246.47483492919787" stroke-miterlimit="10" stroke-width="4"/><path fill="#c7b7c7" stroke="none" paint-order="stroke fill markers" d=" M 938.7776128847221 254.39113409818913 L 933.1697395577523 237.40432283919583 L 949.0023378957349 239.71274868121733 L 938.7776128847221 254.39113409818913 Z"/><path fill="none" stroke="#c7b7c7" paint-order="fill stroke markers" d=" M 1016.0771541429331 142.2208198390781 C 1016.7859027769256 170.57897573671767 1052.516686575675 237.78805153026164 1075.6284604741822 254.23594616165138" stroke-miterlimit="10" stroke-width="4"/><path fill="#c7b7c7" stroke="none" paint-order="stroke fill markers" d=" M 1081.674060401721 259.4752897766613 L 1064.3435169316338 255.04220247418 L 1074.8222041616539 242.95100261910284 L 1081.674060401721 259.4752897766613 Z"/><path fill="none" stroke="#c7b7c7" paint-order="fill stroke markers" d=" M 1092.4942569898797 253.422032944125 C 1091.7855083558873 225.0638770464854 1056.0547245571377 157.85480125294137 1032.9429506586305 141.4069066215516" stroke-miterlimit="10" stroke-width="4"/><path fill="#c7b7c7" stroke="none" paint-order="stroke fill markers" d=" M 1026.8973507310918 136.1675630065417 L 1044.227894201179 140.60065030902283 L 1033.7492069711593 152.6918501641001 L 1026.8973507310918 136.1675630065417 Z"/><path fill="none" stroke="#c7b7c7" paint-order="fill stroke markers" d=" M 1079.480631663452 263.25431944281115 C 1055.6826606961106 250.87644160076064 983.7140769640306 249.72709994064905 959.5329921099853 261.33875000929186" stroke-miterlimit="10" stroke-width="4"/><path fill="#c7b7c7" stroke="none" paint-order="stroke fill markers" d=" M 952.0122933951324 264.06621968655844 L 964.3262211475718 251.09058161717235 L 969.7811605021049 266.1319790468783 L 952.0122933951324 264.06621968655844 Z"/><path fill="none" stroke="#c7b7c7" paint-order="fill stroke markers" d=" M 952.0907794693605 276.388533340392 C 975.8887504367019 288.7664111824425 1047.8573341687818 289.915752842554 1072.038419022827 278.3041027739112" stroke-miterlimit="10" stroke-width="4"/><path fill="#c7b7c7" stroke="none" paint-order="stroke fill markers" d=" M 1079.55911773768 275.5766330966446 L 1067.2451899852406 288.5522711660307 L 1061.7902506307075 273.51087373632475 L 1079.55911773768 275.5766330966446 Z"/><path fill="none" stroke="#c7b7c7" paint-order="fill stroke markers" d=" M 631.3018602612453 154.92506098337384 C 676.0634721096395 206.40486689848137 845.2671076439146 276.24246687666647 913.3079194850372 271.3210609470156" stroke-miterlimit="10" stroke-width="4"/><path fill="#c7b7c7" stroke="none" paint-order="stroke fill markers" d=" M 921.3051171485209 271.10933109278716 L 905.5224516757821 279.5299884647277 L 905.0989919673252 263.53559313776043 L 921.3051171485209 271.10933109278716 Z"/><path fill="none" stroke="#c7b7c7" paint-order="fill stroke markers" d=" M 926.2695508715673 258.7177917998291 C 881.507939023173 207.23798588472158 712.3043034888979 137.40038590653657 644.2634916477753 142.32179183618743" stroke-miterlimit="10" stroke-width="4"/><path fill="#c7b7c7" stroke="none" paint-order="stroke fill markers" d=" M 636.2662939842916 142.53352169041588 L 652.0489594570304 134.11286431847535 L 652.4724191654873 150.10725964544267 L 636.2662939842916 142.53352169041588 Z"/><path fill="none" stroke="#c7b7c7" paint-order="fill stroke markers" d=" M 635.26313978758 397.1708942886191 C 703.287097641168 403.77452094280034 874.4689484747968 337.9944754885298 920.5662245102945 287.53748519816816" stroke-miterlimit="10" stroke-width="4"/><path fill="#c7b7c7" stroke="none" paint-order="stroke fill markers" d=" M 926.2261213519513 281.8836751782078 L 920.5601376885983 298.85119205978526 L 909.2525176486776 287.5313983764719 L 926.2261213519513 281.8836751782078 Z"/><path fill="none" stroke="#c7b7c7" paint-order="fill stroke markers" d=" M 921.3082713452324 269.47195849458416 C 853.2843134916444 262.86833184040296 682.102462658016 328.64837729467354 636.0051866225182 379.10536758503514" stroke-miterlimit="10" stroke-width="4"/><path fill="#c7b7c7" stroke="none" paint-order="stroke fill markers" d=" M 630.3452897808614 384.7591776049955 L 636.0112734442145 367.79166072341803 L 647.3188934841352 379.1114544067314 L 630.3452897808614 384.7591776049955 Z"/><path fill="none" stroke="#c7b7c7" paint-order="fill stroke markers" d=" M 613.3156002417018 15.165881329790942 C 602.3613605751657 36.149963623689686 601.2520841281575 99.65684872888995 611.4668061633549 121.01068983845806" stroke-miterlimit="10" stroke-width="4"/><path fill="#c7b7c7" stroke="none" paint-order="stroke fill markers" d=" M 614.1085795130136 128.56191712738487 L 601.2738055247694 116.10123589918997 L 616.3762601026231 110.81768919987253 L 614.1085795130136 128.56191712738487 Z"/><path fill="none" stroke="#c7b7c7" paint-order="fill stroke markers" d=" M 626.2558108911107 128.47697145341218 C 637.2100505576468 107.49288915951344 638.319327004655 43.98600405431317 628.1046049694577 22.632162944745048" stroke-miterlimit="10" stroke-width="4"/><path fill="#c7b7c7" stroke="none" paint-order="stroke fill markers" d=" M 625.4628316197989 15.080935655818255 L 638.2976056080432 27.54161688401306 L 623.1951510301895 32.825163583330614 L 625.4628316197989 15.080935655818255 Z"/><path fill="none" stroke="#c7b7c7" paint-order="fill stroke markers" d=" M 634.1224621120897 6.310637959422345 C 661.2989421055635 20.000204765757164 742.9499742575022 20.243389108792258 770.2075156986542 6.71594519781417" stroke-miterlimit="10" stroke-width="4"/><path fill="#c7b7c7" stroke="none" paint-order="stroke fill markers" d=" M 777.6655253860517 3.8214518910876762 L 765.6439993179832 17.068448191938202 L 759.8550127045302 2.152428817143125 L 777.6655253860517 3.8214518910876762 Z"/><path fill="none" stroke="#c7b7c7" paint-order="fill stroke markers" d=" M 777.4489490207227 -8.667785176219134 C 750.272469027249 -22.35735198255398 668.6214368753102 -22.600536325589164 641.3638954341582 -9.073092414611105" stroke-miterlimit="10" stroke-width="4"/><path fill="#c7b7c7" stroke="none" paint-order="stroke fill markers" d=" M 633.9058857467606 -6.1785991078846445 L 645.9274118148294 -19.42559540873512 L 651.7163984282822 -4.509576033940016 L 633.9058857467606 -6.1785991078846445 Z"/><path fill="none" stroke="#c7b7c7" paint-order="fill stroke markers" d=" M 780.0876800248694 7.675564351278153 L 638.5827438787114 127.79021945208667" stroke-miterlimit="10" stroke-width="4"/><path fill="#c7b7c7" stroke="none" paint-order="stroke fill markers" d=" M 632.4837311079431 132.96728843192497 L 639.5046876696416 116.51413770147998 L 649.8588256293182 128.7121632430168 L 632.4837311079431 132.96728843192497 Z"/><path fill="none" stroke="#c7b7c7" paint-order="fill stroke markers" d=" M 1044.7936998617706 368.34394781697506 C 1061.4615677681054 357.84233124113365 1088.8625108522995 312.6370099715123 1090.4619383354272 293.0017457009396" stroke-miterlimit="10" stroke-width="4"/><path fill="#c7b7c7" stroke="none" paint-order="stroke fill markers" d=" M 1092.1026308279131 285.1717949894025 L 1096.6511965544785 302.4723889049626 L 1080.9912951314043 299.19100391999075 L 1092.1026308279131 285.1717949894025 Z"/><path fill="none" stroke="#c7b7c7" paint-order="fill stroke markers" d=" M 1081.7777112710414 279.29890496622744 C 1065.1098433647064 289.80052154206896 1037.7089002805126 335.0058428116906 1036.1094727973848 354.6411070822635" stroke-miterlimit="10" stroke-width="4"/><path fill="#c7b7c7" stroke="none" paint-order="stroke fill markers" d=" M 1034.468780304899 362.4710577938006 L 1029.9202145783336 345.17046387824047 L 1045.5801160014078 348.4518488632123 L 1034.468780304899 362.4710577938006 Z"/><path fill="none" stroke="#c7b7c7" paint-order="fill stroke markers" d=" M 1047.3894448919443 383.60129934331144 C 1090.3324782239315 401.5707685303125 1214.9591212451019 393.16585458073035 1255.100516593895 369.59310942734123" stroke-miterlimit="10" stroke-width="4"/><path fill="#c7b7c7" stroke="none" paint-order="stroke fill markers" d=" M 1262.2433408983213 365.9903242608213 L 1251.5604774559886 380.33871889828754 L 1244.3549071229488 366.0530702894348 L 1262.2433408983213 365.9903242608213 Z"/><path fill="none" stroke="#c7b7c7" paint-order="fill stroke markers" d=" M 1261.1819662408682 353.0415534398921 C 1218.238932908881 335.07208425289093 1093.6122898877106 343.4769982024728 1053.4708945389175 367.04974335586184" stroke-miterlimit="10" stroke-width="4"/><path fill="#c7b7c7" stroke="none" paint-order="stroke fill markers" d=" M 1046.3280702344912 370.65252852238183 L 1057.010933676824 356.30413388491553 L 1064.2165040098637 370.58978249376827 L 1046.3280702344912 370.65252852238183 Z"/><path fill="none" stroke="#c7b7c7" paint-order="fill stroke markers" d=" M 1172.8099000663344 454.42921517223306 C 1156.7023554403902 428.2445616667465 1086.6226641315402 384.73044680471185 1056.0104145515845 381.9056904021753" stroke-miterlimit="10" stroke-width="4"/><path fill="#c7b7c7" stroke="none" paint-order="stroke fill markers" d=" M 1048.1421799736474 380.45970125057187 L 1065.324638281125 375.4834449758416 L 1062.432659977918 391.2199141317159 L 1048.1421799736474 380.45970125057187 Z"/><path fill="none" stroke="#c7b7c7" paint-order="fill stroke markers" d=" M 1041.7615110664776 391.21363761097024 C 1057.8690556924219 417.3982911164568 1127.948747001272 460.9124059784912 1158.560996581228 463.7371623810277" stroke-miterlimit="10" stroke-width="4"/><path fill="#c7b7c7" stroke="none" paint-order="stroke fill markers" d=" M 1166.429231159165 465.18315153263114 L 1149.2467728516874 470.1594078073614 L 1152.1387511548944 454.42293865148713 L 1166.429231159165 465.18315153263114 Z"/><path fill="none" stroke="#c7b7c7" paint-order="fill stroke markers" d=" M 1182.1961765626727 451.3216768761407 C 1184.6778302433975 411.1622368945447 1142.4424710992214 311.8015965218448 1111.8039113223795 285.72060958830747" stroke-miterlimit="10" stroke-width="4"/><path fill="#c7b7c7" stroke="none" paint-order="stroke fill markers" d=" M 1106.1018146372362 280.10936254390833 L 1123.1172550519218 285.62975994756323 L 1111.8947609631236 297.03395331784986 L 1106.1018146372362 280.10936254390833 Z"/><path fill="none" stroke="#c7b7c7" paint-order="fill stroke markers" d=" M 1094.3752345701398 285.3211759070624 C 1091.8935808894153 325.48061588865835 1134.1289400335913 424.8412562613581 1164.7674998104333 450.9222431948954" stroke-miterlimit="10" stroke-width="4"/><path fill="#c7b7c7" stroke="none" paint-order="stroke fill markers" d=" M 1170.4695964955765 456.5334902392945 L 1153.454156080891 451.0130928356396 L 1164.676650169689 439.608899465353 L 1170.4695964955765 456.5334902392945 Z"/><path fill="none" stroke="#c7b7c7" paint-order="fill stroke markers" d=" M 1196.5554640744933 460.08443861208457 C 1218.8099040702568 451.4219442594344 1261.8255668369088 403.92662981815795 1268.2482353522466 380.9255812099571" stroke-miterlimit="10" stroke-width="4"/><path fill="#c7b7c7" stroke="none" paint-order="stroke fill markers" d=" M 1271.2246958197857 373.49990392871354 L 1272.6974521659513 391.3277189587398 L 1257.846097603464 385.37479802366164 L 1271.2246958197857 373.49990392871354 Z"/><path fill="none" stroke="#c7b7c7" paint-order="fill stroke markers" d=" M 1262.0159470583196 365.55841417111935 C 1239.7615070625563 374.22090852376937 1196.7458442959044 421.7162229650455 1190.3231757805663 444.7172715732462" stroke-miterlimit="10" stroke-width="4"/><path fill="#c7b7c7" stroke="none" paint-order="stroke fill markers" d=" M 1187.3467153130273 452.14294885448976 L 1185.8739589668617 434.31513382446354 L 1200.725313529349 440.2680547595416 L 1187.3467153130273 452.14294885448976 Z"/><path fill="none" stroke="#c7b7c7" paint-order="fill stroke markers" d=" M 1265.8977170146125 346.15221549492463 C 1243.908011498865 316.30266298481183 1155.3132552489365 271.051383579438 1118.2397899313978 270.7334164859681" stroke-miterlimit="10" stroke-width="4"/><path fill="#c7b7c7" stroke="none" paint-order="stroke fill markers" d=" M 1110.2691927555793 270.0481569286938 L 1126.8956466644904 263.448078867424 L 1125.5251275499418 279.3892732190608 L 1110.2691927555793 270.0481569286938 Z"/><path fill="none" stroke="#c7b7c7" paint-order="fill stroke markers" d=" M 1104.6736941181994 281.490637288279 C 1126.663399633947 311.34018979839175 1215.258155883876 356.5914692037654 1252.3316212014147 356.9094362972351" stroke-miterlimit="10" stroke-width="4"/><path fill="#c7b7c7" stroke="none" paint-order="stroke fill markers" d=" M 1260.3022183772332 357.59469585450944 L 1243.675764468322 364.19477391577925 L 1245.0462835828707 348.25357956414246 L 1260.3022183772332 357.59469585450944 Z"/><path fill="none" stroke="#c7b7c7" paint-order="fill stroke markers" d=" M 1037.491011184975 393.4510263009613 C 1046.2255825049203 433.1425819757781 1118.8647729970637 479.5780585080853 1158.5563286718805 470.8434871881399" stroke-miterlimit="10" stroke-width="4"/><path fill="#c7b7c7" stroke="none" paint-order="stroke fill markers" d=" M 1166.5121127130149 470.0035465409317 L 1151.4404852779544 479.6392118764823 L 1149.7606039835382 463.72764379421363 L 1166.5121127130149 470.0035465409317 Z"/><path fill="none" stroke="#c7b7c7" paint-order="fill stroke markers" d=" M 1187.0277872446559 452.040305315031 C 1207.258385376339 403.35585674039595 1164.577609711911 299.98328668091887 1115.893161137276 279.7526885492358" stroke-miterlimit="10" stroke-width="4"/><path fill="#c7b7c7" stroke="none" paint-order="stroke fill markers" d=" M 1108.8060769746464 276.04145720751006 L 1126.691476641631 276.37683572833214 L 1119.2690139581794 290.551004053591 L 1108.8060769746464 276.04145720751006 Z"/><path fill="none" stroke="#c7b7c7" paint-order="fill stroke markers" d=" M 1100.5347479444306 284.0506310326423 C 1115.0212208379876 330.5478004155128 1206.4966842526292 378.56384514948303 1252.9938536354996 364.077372255926" stroke-miterlimit="10" stroke-width="4"/><path fill="#c7b7c7" stroke="none" paint-order="stroke fill markers" d=" M 1260.8231174654316 362.4334051390654 L 1246.8085569224281 373.5506032027185 L 1243.5206226887071 357.89207554285457 L 1260.8231174654316 362.4334051390654 Z"/><path fill="none" stroke="#c7b7c7" paint-order="fill stroke markers" d=" M 607.3230789180789 385.6961939860149 C 558.1667387286709 335.2005665332583 408.68878726542425 333.19163563823537 358.1931598126677 382.34797582764327" stroke-miterlimit="10" stroke-width="4"/><path fill="#c7b7c7" stroke="none" paint-order="stroke fill markers" d=" M 352.0947775820939 387.52578754397877 L 359.1137303269061 371.0717818807339 L 369.4693537595771 383.2685463418815 L 352.0947775820939 387.52578754397877 Z"/><path fill="none" stroke="#c7b7c7" paint-order="fill stroke markers" d=" M 352.24833221473347 408.9466587971883 C 401.4046724041414 459.44228624994486 550.8826238673881 461.45121714496776 601.3782513201446 412.2948769555598" stroke-miterlimit="10" stroke-width="4"/><path fill="#c7b7c7" stroke="none" paint-order="stroke fill markers" d=" M 607.4766335507184 407.1170652392242 L 600.4576808059064 423.5710709024691 L 590.1020573732353 411.3743064413216 L 607.4766335507184 407.1170652392242 Z"/><path fill="none" stroke="#c7b7c7" paint-order="fill stroke markers" d=" M 635.2705309850938 395.6247511917556 L 1008.3084674383749 379.3664391913705" stroke-miterlimit="10" stroke-width="4"/><path fill="#c7b7c7" stroke="none" paint-order="stroke fill markers" d=" M 1016.3008801477187 379.01810159144753 L 1000.664392328954 387.7071895006373 L 999.9677171291081 371.7223640819497 L 1016.3008801477187 379.01810159144753 Z"/><path fill="none" stroke="#c7b7c7" paint-order="fill stroke markers" d=" M 348.60657624142425 135.18611538861015 L 597.8043995538793 11.024392896088678" stroke-miterlimit="10" stroke-width="4"/><path fill="#c7b7c7" stroke="none" paint-order="stroke fill markers" d=" M 604.9648348913883 7.456737394592973 L 594.2116197178659 21.75248373509337 L 587.0763087148746 7.431613060075399 L 604.9648348913883 7.456737394592973 Z"/><path fill="none" stroke="#c7b7c7" paint-order="fill stroke markers" d=" M 801.6388050832165 10.302933601037726 C 828.0788652520548 51.829139488826684 941.3664567226133 119.76396141691428 990.4514575341474 123.52763681451707" stroke-miterlimit="10" stroke-width="4"/><path fill="#c7b7c7" stroke="none" paint-order="stroke fill markers" d=" M 998.3760804703895 124.62324227196267 L 981.4312291404597 130.35665429331365 L 983.6224400553508 114.50740842082931 L 998.3760804703895 124.62324227196267 Z"/><path fill="none" stroke="#c7b7c7" paint-order="fill stroke markers" d=" M 1004.9326060495961 113.33991918216529 C 978.4925458807578 71.81371329437636 865.2049544101992 3.878891366288828 816.1199535986651 0.11521596868608186" stroke-miterlimit="10" stroke-width="4"/><path fill="#c7b7c7" stroke="none" paint-order="stroke fill markers" d=" M 808.195330662423 -0.9803894887595177 L 825.1401819923528 -6.7138015101104855 L 822.9489710774617 9.135444362373848 L 808.195330662423 -0.9803894887595177 Z"/><path fill="none" stroke="#c7b7c7" paint-order="fill stroke markers" d=" M 356.2322511819588 399.62820982090454 L 1158.3658871430773 465.3612512476471" stroke-miterlimit="10" stroke-width="4"/><path fill="#c7b7c7" stroke="none" paint-order="stroke fill markers" d=" M 1166.3391599508536 466.0146429622986 L 1149.7392226206496 472.6811323407719 L 1151.0460060499524 456.7345867252193 L 1166.3391599508536 466.0146429622986 Z"/><path fill="none" stroke="#c7b7c7" paint-order="fill stroke markers" d=" M 1078.822702632222 265.21100789010956 L 643.4802099676826 149.4870541438396" stroke-miterlimit="10" stroke-width="4"/><path fill="#c7b7c7" stroke="none" paint-order="stroke fill markers" d=" M 635.7487085005905 147.4318448930936 L 653.2669206855207 143.81076192749347 L 649.1565021840288 159.2737648616778 L 635.7487085005905 147.4318448930936 Z"/><path fill="#68aeba" stroke="#c7b7c7" paint-order="stroke fill markers" d=" M 349.28570556640625 142.32142639160156 A 15 15 0 1 1 349.2856980664069 142.30642639410155 Z" stroke-miterlimit="10" stroke-width="2"/><g><text fill="none" stroke="#68aeba" font-family="sans-serif" font-size="16px" font-style="normal" font-weight="bold" text-decoration="normal" x="329.83648681640625" y="142.32142639160156" text-anchor="start" dominant-baseline="central" stroke-linejoin="round" stroke-miterlimit="10" stroke-width="4">1</text></g><text fill="#f0d543" stroke="none" font-family="sans-serif" font-size="16px" font-style="normal" font-weight="bold" text-decoration="normal" x="329.83648681640625" y="142.32142639160156" text-anchor="start" dominant-baseline="central">1</text><text fill="#68aeba" stroke="none" font-family="sans-serif" font-size="12px" font-style="normal" font-weight="normal" text-decoration="normal" x="334.28570556640625" y="117.32142639160156" text-anchor="start" dominant-baseline="central"></text><path fill="#68aeba" stroke="#c7b7c7" paint-order="stroke fill markers" d=" M 355.28570556640625 398.32142639160156 A 15 15 0 1 1 355.2856980664069 398.30642639410155 Z" stroke-miterlimit="10" stroke-width="2"/><g><text fill="none" stroke="#68aeba" font-family="sans-serif" font-size="16px" font-style="normal" font-weight="bold" text-decoration="normal" x="335.83648681640625" y="398.32142639160156" text-anchor="start" dominant-baseline="central" stroke-linejoin="round" stroke-miterlimit="10" stroke-width="4">2</text></g><text fill="#f0d543" stroke="none" font-family="sans-serif" font-size="16px" font-style="normal" font-weight="bold" text-decoration="normal" x="335.83648681640625" y="398.32142639160156" text-anchor="start" dominant-baseline="central">2</text><text fill="#68aeba" stroke="none" font-family="sans-serif" font-size="12px" font-style="normal" font-weight="normal" text-decoration="normal" x="340.28570556640625" y="373.32142639160156" text-anchor="start" dominant-baseline="central"></text><path fill="#68aeba" stroke="#c7b7c7" paint-order="stroke fill markers" d=" M 634.2857055664062 396.32142639160156 A 15 15 0 1 1 634.2856980664069 396.30642639410155 Z" stroke-miterlimit="10" stroke-width="2"/><g><text fill="none" stroke="#68aeba" font-family="sans-serif" font-size="16px" font-style="normal" font-weight="bold" text-decoration="normal" x="614.8364868164062" y="396.32142639160156" text-anchor="start" dominant-baseline="central" stroke-linejoin="round" stroke-miterlimit="10" stroke-width="4">3</text></g><text fill="#f0d543" stroke="none" font-family="sans-serif" font-size="16px" font-style="normal" font-weight="bold" text-decoration="normal" x="614.8364868164062" y="396.32142639160156" text-anchor="start" dominant-baseline="central">3</text><text fill="#68aeba" stroke="none" font-family="sans-serif" font-size="12px" font-style="normal" font-weight="normal" text-decoration="normal" x="619.2857055664062" y="371.32142639160156" text-anchor="start" dominant-baseline="central"></text><path fill="#68aeba" stroke="#c7b7c7" paint-order="stroke fill markers" d=" M 635.2857055664062 143.32142639160156 A 15 15 0 1 1 635.2856980664069 143.30642639410155 Z" stroke-miterlimit="10" stroke-width="2"/><g><text fill="none" stroke="#68aeba" font-family="sans-serif" font-size="16px" font-style="normal" font-weight="bold" text-decoration="normal" x="615.8364868164062" y="143.32142639160156" text-anchor="start" dominant-baseline="central" stroke-linejoin="round" stroke-miterlimit="10" stroke-width="4">4</text></g><text fill="#f0d543" stroke="none" font-family="sans-serif" font-size="16px" font-style="normal" font-weight="bold" text-decoration="normal" x="615.8364868164062" y="143.32142639160156" text-anchor="start" dominant-baseline="central">4</text><text fill="#68aeba" stroke="none" font-family="sans-serif" font-size="12px" font-style="normal" font-weight="normal" text-decoration="normal" x="620.2857055664062" y="118.32142639160156" text-anchor="start" dominant-baseline="central"></text><path fill="#68aeba" stroke="#c7b7c7" paint-order="stroke fill markers" d=" M 1029.2857055664062 126.32142639160156 A 15 15 0 1 1 1029.285698066407 126.30642639410155 Z" stroke-miterlimit="10" stroke-width="2"/><g><text fill="none" stroke="#68aeba" font-family="sans-serif" font-size="16px" font-style="normal" font-weight="bold" text-decoration="normal" x="1009.8364868164062" y="126.32142639160156" text-anchor="start" dominant-baseline="central" stroke-linejoin="round" stroke-miterlimit="10" stroke-width="4">5</text></g><text fill="#f0d543" stroke="none" font-family="sans-serif" font-size="16px" font-style="normal" font-weight="bold" text-decoration="normal" x="1009.8364868164062" y="126.32142639160156" text-anchor="start" dominant-baseline="central">5</text><text fill="#68aeba" stroke="none" font-family="sans-serif" font-size="12px" font-style="normal" font-weight="normal" text-decoration="normal" x="1014.2857055664062" y="101.32142639160156" text-anchor="start" dominant-baseline="central"></text><path fill="#68aeba" stroke="#c7b7c7" paint-order="stroke fill markers" d=" M 952.2857055664062 270.32142639160156 A 15 15 0 1 1 952.2856980664069 270.30642639410155 Z" stroke-miterlimit="10" stroke-width="2"/><g><text fill="none" stroke="#68aeba" font-family="sans-serif" font-size="16px" font-style="normal" font-weight="bold" text-decoration="normal" x="932.8364868164062" y="270.32142639160156" text-anchor="start" dominant-baseline="central" stroke-linejoin="round" stroke-miterlimit="10" stroke-width="4">6</text></g><text fill="#f0d543" stroke="none" font-family="sans-serif" font-size="16px" font-style="normal" font-weight="bold" text-decoration="normal" x="932.8364868164062" y="270.32142639160156" text-anchor="start" dominant-baseline="central">6</text><text fill="#68aeba" stroke="none" font-family="sans-serif" font-size="12px" font-style="normal" font-weight="normal" text-decoration="normal" x="937.2857055664062" y="245.32142639160156" text-anchor="start" dominant-baseline="central"></text><path fill="#68aeba" stroke="#c7b7c7" paint-order="stroke fill markers" d=" M 1109.2857055664062 269.32142639160156 A 15 15 0 1 1 1109.285698066407 269.30642639410155 Z" stroke-miterlimit="10" stroke-width="2"/><g><text fill="none" stroke="#68aeba" font-family="sans-serif" font-size="16px" font-style="normal" font-weight="bold" text-decoration="normal" x="1089.8364868164062" y="269.32142639160156" text-anchor="start" dominant-baseline="central" stroke-linejoin="round" stroke-miterlimit="10" stroke-width="4">7</text></g><text fill="#f0d543" stroke="none" font-family="sans-serif" font-size="16px" font-style="normal" font-weight="bold" text-decoration="normal" x="1089.8364868164062" y="269.32142639160156" text-anchor="start" dominant-baseline="central">7</text><text fill="#68aeba" stroke="none" font-family="sans-serif" font-size="12px" font-style="normal" font-weight="normal" text-decoration="normal" x="1094.2857055664062" y="244.32142639160156" text-anchor="start" dominant-baseline="central"></text><path fill="#68aeba" stroke="#c7b7c7" paint-order="stroke fill markers" d=" M 634.2857055664062 0.3214263916015625 A 15 15 0 1 1 634.2856980664069 0.3064263941015537 Z" stroke-miterlimit="10" stroke-width="2"/><g><text fill="none" stroke="#68aeba" font-family="sans-serif" font-size="16px" font-style="normal" font-weight="bold" text-decoration="normal" x="614.8364868164062" y="0.3214263916015625" text-anchor="start" dominant-baseline="central" stroke-linejoin="round" stroke-miterlimit="10" stroke-width="4">8</text></g><text fill="#f0d543" stroke="none" font-family="sans-serif" font-size="16px" font-style="normal" font-weight="bold" text-decoration="normal" x="614.8364868164062" y="0.3214263916015625" text-anchor="start" dominant-baseline="central">8</text><text fill="#68aeba" stroke="none" font-family="sans-serif" font-size="12px" font-style="normal" font-weight="normal" text-decoration="normal" x="619.2857055664062" y="-24.678573608398438" text-anchor="start" dominant-baseline="central"></text><path fill="#68aeba" stroke="#c7b7c7" paint-order="stroke fill markers" d=" M 807.2857055664062 -2.6785736083984375 A 15 15 0 1 1 807.2856980664069 -2.6935736058984463 Z" stroke-miterlimit="10" stroke-width="2"/><g><text fill="none" stroke="#68aeba" font-family="sans-serif" font-size="16px" font-style="normal" font-weight="bold" text-decoration="normal" x="787.8364868164062" y="-2.6785736083984375" text-anchor="start" dominant-baseline="central" stroke-linejoin="round" stroke-miterlimit="10" stroke-width="4">9</text></g><text fill="#f0d543" stroke="none" font-family="sans-serif" font-size="16px" font-style="normal" font-weight="bold" text-decoration="normal" x="787.8364868164062" y="-2.6785736083984375" text-anchor="start" dominant-baseline="central">9</text><text fill="#68aeba" stroke="none" font-family="sans-serif" font-size="12px" font-style="normal" font-weight="normal" text-decoration="normal" x="792.2857055664062" y="-27.678573608398438" text-anchor="start" dominant-baseline="central"></text><path fill="#68aeba" stroke="#c7b7c7" paint-order="stroke fill markers" d=" M 1047.2857055664062 378.32142639160156 A 15 15 0 1 1 1047.285698066407 378.30642639410155 Z" stroke-miterlimit="10" stroke-width="2"/><g><text fill="none" stroke="#68aeba" font-family="sans-serif" font-size="16px" font-style="normal" font-weight="bold" text-decoration="normal" x="1023.3872680664062" y="378.32142639160156" text-anchor="start" dominant-baseline="central" stroke-linejoin="round" stroke-miterlimit="10" stroke-width="4">10</text></g><text fill="#f0d543" stroke="none" font-family="sans-serif" font-size="16px" font-style="normal" font-weight="bold" text-decoration="normal" x="1023.3872680664062" y="378.32142639160156" text-anchor="start" dominant-baseline="central">10</text><text fill="#68aeba" stroke="none" font-family="sans-serif" font-size="12px" font-style="normal" font-weight="normal" text-decoration="normal" x="1032.2857055664062" y="353.32142639160156" text-anchor="start" dominant-baseline="central"></text><path fill="#68aeba" stroke="#c7b7c7" paint-order="stroke fill markers" d=" M 1197.2857055664062 467.32142639160156 A 15 15 0 1 1 1197.285698066407 467.30642639410155 Z" stroke-miterlimit="10" stroke-width="2"/><g><text fill="none" stroke="#68aeba" font-family="sans-serif" font-size="16px" font-style="normal" font-weight="bold" text-decoration="normal" x="1173.8286743164062" y="467.32142639160156" text-anchor="start" dominant-baseline="central" stroke-linejoin="round" stroke-miterlimit="10" stroke-width="4">11</text></g><text fill="#f0d543" stroke="none" font-family="sans-serif" font-size="16px" font-style="normal" font-weight="bold" text-decoration="normal" x="1173.8286743164062" y="467.32142639160156" text-anchor="start" dominant-baseline="central">11</text><text fill="#68aeba" stroke="none" font-family="sans-serif" font-size="12px" font-style="normal" font-weight="normal" text-decoration="normal" x="1182.2857055664062" y="442.32142639160156" text-anchor="start" dominant-baseline="central"></text><path fill="#68aeba" stroke="#c7b7c7" paint-order="stroke fill markers" d=" M 1291.2857055664062 358.32142639160156 A 15 15 0 1 1 1291.285698066407 358.30642639410155 Z" stroke-miterlimit="10" stroke-width="2"/><g><text fill="none" stroke="#68aeba" font-family="sans-serif" font-size="16px" font-style="normal" font-weight="bold" text-decoration="normal" x="1267.3872680664062" y="358.32142639160156" text-anchor="start" dominant-baseline="central" stroke-linejoin="round" stroke-miterlimit="10" stroke-width="4">12</text></g><text fill="#f0d543" stroke="none" font-family="sans-serif" font-size="16px" font-style="normal" font-weight="bold" text-decoration="normal" x="1267.3872680664062" y="358.32142639160156" text-anchor="start" dominant-baseline="central">12</text><text fill="#68aeba" stroke="none" font-family="sans-serif" font-size="12px" font-style="normal" font-weight="normal" text-decoration="normal" x="1276.2857055664062" y="333.32142639160156" text-anchor="start" dominant-baseline="central"></text></g></g></svg>