<svg version="1.1" xmlns="http://www.w3.org/2000/svg" xmlns:xlink="http://www.w3.org/1999/xlink" width="1034.4642925262451" height="602"><defs/><g><g transform="translate(-68.53570556640625,-125.32142639160156)"><rect fill="#FFFFFF" stroke="none" x="68.53570556640625" y="125.32142639160156" width="2146" height="899"/><rect fill="#ffffff" stroke="none" x="68.53570556640625" y="125.32142639160156" width="2146" height="899"/><path fill="none" stroke="#c7b7c7" paint-order="fill stroke markers" d=" M 281.29043813097996 170.71055319508807 C 241.42572272172583 168.97835902077492 143.6717727303402 212.65875149352829 118.36718814533722 243.5112073163437" stroke-miterlimit="10" stroke-width="4"/><path fill="#c7b7c7" stroke="none" paint-order="stroke fill markers" d=" M 112.85827380497257 249.3122298805581 L 118.07507992148747 232.20127041176465 L 129.6771250499163 243.21909909249393 L 112.85827380497257 249.3122298805581 Z"/><path fill="none" stroke="#c7b7c7" paint-order="fill stroke markers" d=" M 118.28097300183254 260.93229958811526 C 158.14568841108667 262.6644937624284 255.89963840247236 218.98410128967498 281.20422298747536 188.13164546685954" stroke-miterlimit="10" stroke-width="4"/><path fill="#c7b7c7" stroke="none" paint-order="stroke fill markers" d=" M 286.71313732784 182.3306229026451 L 281.4963312113251 199.44158237143859 L 269.8942860828963 188.4237536907093 L 286.71313732784 182.3306229026451 Z"/><path fill="none" stroke="#c7b7c7" paint-order="fill stroke markers" d=" M 103.04319727563555 277.3034852799441 C 102.15102543409746 314.66818862299806 144.84745702607086 405.41408285617337 174.2039165955912 428.54664233523624" stroke-miterlimit="10" stroke-width="4"/><path fill="#c7b7c7" stroke="none" paint-order="stroke fill markers" d=" M 180.08976282249844 433.9648352252321 L 162.8998774786881 429.01429567214757 L 173.73626325867986 417.2426032183331 L 180.08976282249844 433.9648352252321 Z"/><path fill="none" stroke="#c7b7c7" paint-order="fill stroke markers" d=" M 191.52821385717684 428.33936750325904 C 192.42038569871494 390.97466416020507 149.72395410674156 300.2287699270298 120.36749453722125 277.096210447967" stroke-miterlimit="10" stroke-width="4"/><path fill="#c7b7c7" stroke="none" paint-order="stroke fill markers" d=" M 114.48164831031403 271.6780175579711 L 131.67153365412437 276.62855711105567 L 120.83514787413257 288.40024956487014 L 114.48164831031403 271.6780175579711 Z"/><path fill="none" stroke="#c7b7c7" paint-order="fill stroke markers" d=" M 207.34880561263552 449.71614760750214 C 253.5111483395604 469.2576864418647 387.7506174854152 460.7625683720249 431.0812541890602 435.55761749110246" stroke-miterlimit="10" stroke-width="4"/><path fill="#c7b7c7" stroke="none" paint-order="stroke fill markers" d=" M 438.224893471388 431.95644854144416 L 427.5387838563907 446.30242572308856 L 420.3364459570741 432.01514715843297 L 438.224893471388 431.95644854144416 Z"/><path fill="none" stroke="#c7b7c7" paint-order="fill stroke markers" d=" M 437.2226055201769 418.9267051757013 C 391.06026279325204 399.3851663413387 256.82079364739735 407.8802844111783 213.49015694375237 433.08523529210066" stroke-miterlimit="10" stroke-width="4"/><path fill="#c7b7c7" stroke="none" paint-order="stroke fill markers" d=" M 206.3465176614246 436.686404241759 L 217.0326272764218 422.3404270601145 L 224.23496517573852 436.6277056247701 L 206.3465176614246 436.686404241759 Z"/><path fill="none" stroke="#c7b7c7" paint-order="fill stroke markers" d=" M 460.86012204847293 410.81293343375967 C 481.15825586509294 383.6782757893977 497.31218785174667 294.1973368629849 487.7833420262291 261.67803522307173" stroke-miterlimit="10" stroke-width="4"/><path fill="#c7b7c7" stroke="none" paint-order="stroke fill markers" d=" M 486.1782218040162 253.84071494939127 L 497.22578252212253 267.91023527453933 L 481.5511419747616 271.12047571896517 L 486.1782218040162 253.84071494939127 Z"/><path fill="none" stroke="#c7b7c7" paint-order="fill stroke markers" d=" M 473.71128908433934 251.8299193494433 C 453.41315526771933 278.9645769938053 437.25922328106566 368.44551592021816 446.78806910658324 400.9648175601314" stroke-miterlimit="10" stroke-width="4"/><path fill="#c7b7c7" stroke="none" paint-order="stroke fill markers" d=" M 448.3931893287962 408.80213783381186 L 437.3456286106898 394.7326175086639 L 453.0202691580507 391.52237706423796 L 448.3931893287962 408.80213783381186 Z"/><path fill="none" stroke="#c7b7c7" paint-order="fill stroke markers" d=" M 470.6909543565664 227.29592212277478 C 446.6027329117068 200.7569047749389 356.9441806266408 165.9691288739643 321.2600338814563 169.31629562115046" stroke-miterlimit="10" stroke-width="4"/><path fill="#c7b7c7" stroke="none" paint-order="stroke fill markers" d=" M 313.2608379498949 169.42971717329561 L 329.1458082608726 161.2036781374439 L 329.37265136516294 177.20207000056678 L 313.2608379498949 169.42971717329561 Z"/><path fill="none" stroke="#c7b7c7" paint-order="fill stroke markers" d=" M 308.8804567762462 181.34693066042826 C 332.96867822110573 207.88594800826414 422.62723050617177 242.67372390923882 458.3113772513562 239.3265571620527" stroke-miterlimit="10" stroke-width="4"/><path fill="#c7b7c7" stroke="none" paint-order="stroke fill markers" d=" M 466.3105731829176 239.21313560990757 L 450.4256028719398 247.43917464575927 L 450.1987597676496 231.44078278263638 L 466.3105731829176 239.21313560990757 Z"/><path fill="none" stroke="#c7b7c7" paint-order="fill stroke markers" d=" M 186.16199038219997 459.1031756907448 C 170.05615311366904 491.1015764297896 169.80022455604856 587.2247429257342 185.73544278616583 619.3084531839858" stroke-miterlimit="10" stroke-width="4"/><path fill="#c7b7c7" stroke="none" paint-order="stroke fill markers" d=" M 188.71472878195604 626.7329972747222 L 175.33161269963927 614.8631950890396 L 190.180700881112 608.9046230974592 L 188.71472878195604 626.7329972747222 Z"/><path fill="none" stroke="#c7b7c7" paint-order="fill stroke markers" d=" M 201.40942075061233 626.5396770924583 C 217.5152580191433 594.5412763534135 217.77118657676388 498.41810985746906 201.83596834664667 466.3343995992174" stroke-miterlimit="10" stroke-width="4"/><path fill="#c7b7c7" stroke="none" paint-order="stroke fill markers" d=" M 198.85668235085646 458.90985550848103 L 212.23979843317323 470.7796576941635 L 197.3907102517005 476.738229685744 L 198.85668235085646 458.90985550848103 Z"/><path fill="none" stroke="#c7b7c7" paint-order="fill stroke markers" d=" M 471.7310267413271 635.6760276602391 C 421.2365063684685 609.4353942704448 268.5608974058546 607.0512985823689 217.27167847030393 631.7025348467791" stroke-miterlimit="10" stroke-width="4"/><path fill="#c7b7c7" stroke="none" paint-order="stroke fill markers" d=" M 209.88571294659747 634.7762155853432 L 221.5839632554464 621.2428885845087 L 227.73132473257442 636.0148196319216 L 209.88571294659747 634.7762155853432 Z"/><path fill="none" stroke="#c7b7c7" paint-order="fill stroke markers" d=" M 209.8403843914854 647.966825122964 C 260.33490476434406 674.2074585127583 413.01051372695787 676.5915542008341 464.29973266250846 651.9403179364238" stroke-miterlimit="10" stroke-width="4"/><path fill="#c7b7c7" stroke="none" paint-order="stroke fill markers" d=" M 471.68569818621495 648.8666371978597 L 459.98744787736604 662.3999641986942 L 453.840086400238 647.6280331512813 L 471.68569818621495 648.8666371978597 Z"/><path fill="none" stroke="#c7b7c7" paint-order="fill stroke markers" d=" M 490.37976352603704 626.8540837166886 C 503.5088602303044 587.8810593604148 488.2510630930175 478.590884860237 464.9501016305589 444.70379288305884" stroke-miterlimit="10" stroke-width="4"/><path fill="#c7b7c7" stroke="none" paint-order="stroke fill markers" d=" M 460.8954255188521 437.8074459059155 L 475.901124719409 447.5454637484954 L 462.10843076512225 455.654815971909 L 460.8954255188521 437.8074459059155 Z"/><path fill="none" stroke="#c7b7c7" paint-order="fill stroke markers" d=" M 448.19164760677563 439.7887690665146 C 435.06255090250824 478.76179342278834 450.3203480397951 588.0519679229662 473.62130950225367 621.9390599001443" stroke-miterlimit="10" stroke-width="4"/><path fill="#c7b7c7" stroke="none" paint-order="stroke fill markers" d=" M 477.6759856139604 628.8354068772877 L 462.6702864134035 619.0973890347077 L 476.46298036769025 610.9880368112943 L 477.6759856139604 628.8354068772877 Z"/><path fill="none" stroke="#c7b7c7" paint-order="fill stroke markers" d=" M 497.24728822798085 243.9916154767089 C 525.3605488011799 257.3596779049383 608.8740490907329 255.70711504484998 636.4364553772358 241.23734404322838" stroke-miterlimit="10" stroke-width="4"/><path fill="#c7b7c7" stroke="none" paint-order="stroke fill markers" d=" M 643.8217081105219 238.16195104956233 L 632.1265956376157 251.6979897701805 L 625.9758096502836 236.92748430360828 L 643.8217081105219 238.16195104956233 Z"/><path fill="none" stroke="#c7b7c7" paint-order="fill stroke markers" d=" M 643.3241229048316 225.65123730649432 C 615.2108623316326 212.28317487826493 531.6973620420797 213.93573773835323 504.13495575557675 228.4055087399748" stroke-miterlimit="10" stroke-width="4"/><path fill="#c7b7c7" stroke="none" paint-order="stroke fill markers" d=" M 496.74970302229065 231.4809017336408 L 508.44481549519685 217.9448630130227 L 514.5956014825289 232.71536847959493 L 496.74970302229065 231.4809017336408 Z"/><path fill="none" stroke="#c7b7c7" paint-order="fill stroke markers" d=" M 673.2683638830046 236.93568945705084 C 695.7773608539109 247.90871470629554 762.9665838831797 247.2331789393952 785.2504022651193 235.80979651221696" stroke-miterlimit="10" stroke-width="4"/><path fill="#c7b7c7" stroke="none" paint-order="stroke fill markers" d=" M 792.7131248563655 232.92747600156886 L 780.6700001845212 246.15483961411132 L 774.905359163225 231.2293944316188 L 792.7131248563655 232.92747600156886 Z"/><path fill="none" stroke="#c7b7c7" paint-order="fill stroke markers" d=" M 792.303047249808 220.7071633261523 C 769.7940502789016 209.7341380769076 702.6048272496328 210.40967384380798 680.3210088676932 221.83305627098625" stroke-miterlimit="10" stroke-width="4"/><path fill="#c7b7c7" stroke="none" paint-order="stroke fill markers" d=" M 672.858286276447 224.71537678163432 L 684.9014109482915 211.48801316909191 L 690.6660519695876 226.41345835158444 L 672.858286276447 224.71537678163432 Z"/><path fill="none" stroke="#c7b7c7" paint-order="fill stroke markers" d=" M 822.1853823777135 232.15234663789153 C 844.9368553956159 243.622993067862 913.3051663545461 243.8507768783083 936.132567309264 232.53198632196867" stroke-miterlimit="10" stroke-width="4"/><path fill="#c7b7c7" stroke="none" paint-order="stroke fill markers" d=" M 943.6293872788053 229.739551838532 L 931.4281818231593 242.8212407749467 L 925.843312856286 227.827600835864 L 943.6293872788053 229.739551838532 Z"/><path fill="none" stroke="#c7b7c7" paint-order="fill stroke markers" d=" M 943.386028755099 217.49050614531157 C 920.6345557371966 206.01985971534106 852.2662447782662 205.7920759048947 829.4388438235484 217.11086646123428" stroke-miterlimit="10" stroke-width="4"/><path fill="#c7b7c7" stroke="none" paint-order="stroke fill markers" d=" M 821.9420238540071 219.90330094467097 L 834.1432293096531 206.82161200825627 L 839.7280982765263 221.8152519473389 L 821.9420238540071 219.90330094467097 Z"/><path fill="none" stroke="#c7b7c7" paint-order="fill stroke markers" d=" M 788.4796622874918 427.33577372278825 C 809.9794847249259 436.88309883239623 873.0358487062974 433.99689217053435 893.5736022564442 422.5254292863518" stroke-miterlimit="10" stroke-width="4"/><path fill="#c7b7c7" stroke="none" paint-order="stroke fill markers" d=" M 900.9444698167374 419.4157168545316 L 889.3124471279712 433.0060092784653 L 883.0930222643308 418.26427415787884 L 900.9444698167374 419.4157168545316 Z"/><path fill="none" stroke="#c7b7c7" paint-order="fill stroke markers" d=" M 900.0917488453207 407.3070790604148 C 878.5919264078866 397.7597539508069 815.5355624265152 400.64596061266883 794.9978088763684 412.11742349685136" stroke-miterlimit="10" stroke-width="4"/><path fill="#c7b7c7" stroke="none" paint-order="stroke fill markers" d=" M 787.6269413160752 415.22713592867166 L 799.2589640048412 401.63684350473784 L 805.4783888684818 416.37857862532417 L 787.6269413160752 415.22713592867166 Z"/><path fill="none" stroke="#c7b7c7" paint-order="fill stroke markers" d=" M 768.3792060753008 562.1913041234988 C 758.2405326307742 581.5665600028424 757.1580234191229 640.233582246699 766.5750240558818 659.9696745299265" stroke-miterlimit="10" stroke-width="4"/><path fill="#c7b7c7" stroke="none" paint-order="stroke fill markers" d=" M 769.1595718171733 667.5406792762996 L 756.4194715482173 654.9832175448449 L 771.5614810409635 649.814122022262 L 769.1595718171733 667.5406792762996 Z"/><path fill="none" stroke="#c7b7c7" paint-order="fill stroke markers" d=" M 781.192205057512 667.4515486597045 C 791.3308785020384 648.0762927803607 792.4133877136896 589.4092705365041 782.9963870769307 569.6731782532767" stroke-miterlimit="10" stroke-width="4"/><path fill="#c7b7c7" stroke="none" paint-order="stroke fill markers" d=" M 780.4118393156392 562.1021735069036 L 793.1519395845952 574.6596352383582 L 778.009930091849 579.8287307609411 L 780.4118393156392 562.1021735069036 Z"/><path fill="none" stroke="#c7b7c7" paint-order="fill stroke markers" d=" M 784.1652344004747 559.9069303551626 C 799.7884762845458 583.8190669456982 865.9788207149593 622.4603045020982 894.4824751178304 624.3089929491626" stroke-miterlimit="10" stroke-width="4"/><path fill="#c7b7c7" stroke="none" paint-order="stroke fill markers" d=" M 902.3805265906674 625.5820926830472 L 885.3113239111087 630.933944688115 L 887.8575233788779 615.1378417424411 L 902.3805265906674 625.5820926830472 Z"/><path fill="none" stroke="#c7b7c7" paint-order="fill stroke markers" d=" M 908.4061767323376 614.7359224280407 C 892.7829348482666 590.823785837505 826.5925904178532 552.1825482811049 798.0889360149821 550.3338598340404" stroke-miterlimit="10" stroke-width="4"/><path fill="#c7b7c7" stroke="none" paint-order="stroke fill markers" d=" M 790.1908845421451 549.0607601001558 L 807.2600872217038 543.7089080950881 L 804.7138877539346 559.505011040762 L 790.1908845421451 549.0607601001558 Z"/><path fill="none" stroke="#c7b7c7" paint-order="fill stroke markers" d=" M 791.2800398749963 682.74718456834 C 817.0662921508062 685.8394511076986 882.6640174599804 662.3173880711871 900.6095820569532 643.5437461741543" stroke-miterlimit="10" stroke-width="4"/><path fill="#c7b7c7" stroke="none" paint-order="stroke fill markers" d=" M 906.6989242392877 638.3553059666892 L 899.7086800820836 654.821528563954 L 889.3317996671534 642.6428441992848 L 906.6989242392877 638.3553059666892 Z"/><path fill="none" stroke="#c7b7c7" paint-order="fill stroke markers" d=" M 902.2913712578162 626.8956682148636 C 876.5051189820064 623.8034016755049 810.9073936728323 647.3254647120161 792.9618290758594 666.0991066090488" stroke-miterlimit="10" stroke-width="4"/><path fill="#c7b7c7" stroke="none" paint-order="stroke fill markers" d=" M 786.8724868935248 671.2875468165139 L 793.8627310507289 654.8213242192492 L 804.2396114656591 667.0000085839185 L 786.8724868935248 671.2875468165139 Z"/><path fill="none" stroke="#c7b7c7" paint-order="fill stroke markers" d=" M 774.1577096622096 531.3219383670269 L 773.4776994227011 446.3206584284636" stroke-miterlimit="10" stroke-width="4"/><path fill="#c7b7c7" stroke="none" paint-order="stroke fill markers" d=" M 773.4137014706029 438.32091441617627 L 781.5414413870868 454.25640448865266 L 765.5419533625121 454.3844003928493 L 773.4137014706029 438.32091441617627 Z"/><path fill="none" stroke="#c7b7c7" paint-order="fill stroke markers" d=" M 794.6204956089181 216.54428689516695 C 771.1566097155637 192.81817640144243 700.3716151349453 192.42483950088723 676.6455046412208 215.88872539424165" stroke-miterlimit="10" stroke-width="4"/><path fill="#c7b7c7" stroke="none" paint-order="stroke fill markers" d=" M 670.2669778676558 220.71722373212208 L 678.1955330769055 204.6817002827962 L 687.8525297526663 217.43875382992627 L 670.2669778676558 220.71722373212208 Z"/><path fill="none" stroke="#c7b7c7" paint-order="fill stroke markers" d=" M 670.9509155238944 241.0985658880362 C 694.4148014172488 264.8246763817607 765.1997959978672 265.2180132823159 788.9259064915917 241.75412738896148" stroke-miterlimit="10" stroke-width="4"/><path fill="#c7b7c7" stroke="none" paint-order="stroke fill markers" d=" M 795.3044332651567 236.92562905108105 L 787.375878055907 252.96115250040694 L 777.7188813801462 240.20409895327688 L 795.3044332651567 236.92562905108105 Z"/><path fill="none" stroke="#c7b7c7" paint-order="fill stroke markers" d=" M 208.00957452732567 441.3617059825367 C 278.67513096403246 431.1144583591448 435.97576926405844 321.7223963389561 470.177305027369 259.0416026155555" stroke-miterlimit="10" stroke-width="4"/><path fill="#c7b7c7" stroke="none" paint-order="stroke fill markers" d=" M 474.3136922985392 252.19395335884698 L 472.88856701290734 270.02563914343426 L 459.1932684994902 261.7528646010939 L 474.3136922985392 252.19395335884698 Z"/><path fill="none" stroke="#c7b7c7" paint-order="fill stroke markers" d=" M 466.56183660548686 241.28114680066648 C 395.89628016878004 251.52839442405835 238.595641868754 360.92045644424695 204.3941061054434 423.60125016764755" stroke-miterlimit="10" stroke-width="4"/><path fill="#c7b7c7" stroke="none" paint-order="stroke fill markers" d=" M 200.25771883427316 430.44889942435606 L 201.6828441199051 412.61721363976875 L 215.37814263332217 420.8899881821092 L 200.25771883427316 430.44889942435606 Z"/><path fill="none" stroke="#c7b7c7" paint-order="fill stroke markers" d=" M 443.9512071292772 410.66360314624166 L 309.7874532220999 190.80816125964142" stroke-miterlimit="10" stroke-width="4"/><path fill="#c7b7c7" stroke="none" paint-order="stroke fill markers" d=" M 305.6202040035353 183.97924963696147 L 320.7836140633443 193.46982366375684 L 307.12579081798447 201.8043221008859 L 305.6202040035353 183.97924963696147 Z"/><path fill="none" stroke="#c7b7c7" paint-order="fill stroke markers" d=" M 467.38667706700363 232.4888497933914 C 396.8480448307448 201.61848486147784 190.51088954542732 212.17596770839586 123.49141825814115 250.0846545382548" stroke-miterlimit="10" stroke-width="4"/><path fill="#c7b7c7" stroke="none" paint-order="stroke fill markers" d=" M 116.372497652882 253.73444486319357 L 126.96054853846151 239.31594360805684 L 134.26012918833908 253.55378481857514 L 116.372497652882 253.73444486319357 Z"/><path fill="none" stroke="#c7b7c7" paint-order="fill stroke markers" d=" M 117.1847340658089 267.1540029898116 C 187.72336630206775 298.02436792172523 394.0605215873852 287.4668850748073 461.0799928746714 249.55819824494841" stroke-miterlimit="10" stroke-width="4"/><path fill="#c7b7c7" stroke="none" paint-order="stroke fill markers" d=" M 468.1989134799305 245.9084079200096 L 457.6108625943511 260.32690917514634 L 450.3112819444735 246.0890679646281 L 468.1989134799305 245.9084079200096 Z"/><path fill="none" stroke="#c7b7c7" paint-order="fill stroke markers" d=" M 203.66406986650472 433.0727453198383 C 246.50797769632692 394.79880696541204 303.40463046258867 251.52866551900243 298.49182447694096 194.28917624248894" stroke-miterlimit="10" stroke-width="4"/><path fill="#c7b7c7" stroke="none" paint-order="stroke fill markers" d=" M 298.23280842138314 186.29337042425126 L 306.7466463507365 202.02596600516873 L 290.75503471426117 202.54399811628443 L 298.23280842138314 186.29337042425126 Z"/><path fill="none" stroke="#c7b7c7" paint-order="fill stroke markers" d=" M 285.9073412663077 181.57010746336474 C 243.06343343648552 219.84404581779103 186.16678067022386 363.11418726420067 191.0795866558716 420.35367654071416" stroke-miterlimit="10" stroke-width="4"/><path fill="#c7b7c7" stroke="none" paint-order="stroke fill markers" d=" M 191.33860271142944 428.34948235895183 L 182.82476478207604 412.61688677803437 L 198.81637641855139 412.0988546669186 L 191.33860271142944 428.34948235895183 Z"/><path fill="none" stroke="#c7b7c7" paint-order="fill stroke markers" d=" M 441.96643840984285 412.0938867637176 C 393.88670380416914 350.41202122969185 204.4771021097214 260.0712254748384 126.28376891909657 261.5258938389619" stroke-miterlimit="10" stroke-width="4"/><path fill="#c7b7c7" stroke="none" paint-order="stroke fill markers" d=" M 118.28567798949784 261.3511326250998 L 134.45662106255736 253.70256412322522 L 134.10709863483322 269.6987459824227 L 118.28567798949784 261.3511326250998 Z"/><path fill="none" stroke="#c7b7c7" paint-order="fill stroke markers" d=" M 112.6049727229696 273.54896601948553 C 160.6847073286433 335.23083155351134 350.09430902309106 425.5716273083648 428.2876422137159 424.11695894424133" stroke-miterlimit="10" stroke-width="4"/><path fill="#c7b7c7" stroke="none" paint-order="stroke fill markers" d=" M 436.28573314331464 424.29172015810343 L 420.1147900702551 431.940288659978 L 420.4643124979793 415.94410680078056 L 436.28573314331464 424.29172015810343 Z"/><path fill="none" stroke="#c7b7c7" paint-order="fill stroke markers" d=" M 210.7001465658311 637.0324861174487 C 276.0479921988698 621.9375697850073 414.7689221192331 507.2923558275018 441.90169643310327 445.9571295216061" stroke-miterlimit="10" stroke-width="4"/><path fill="#c7b7c7" stroke="none" paint-order="stroke fill markers" d=" M 445.4742220538149 438.7991227676725 L 445.4871775663252 456.6876618962513 L 431.17116405845803 449.542610654828 L 445.4742220538149 438.7991227676725 Z"/><path fill="none" stroke="#c7b7c7" paint-order="fill stroke markers" d=" M 436.87126456698144 428.6103666657545 C 371.5234189339427 443.7052829981958 232.80248901357942 558.3504969557014 205.66971469970923 619.6857232615971" stroke-miterlimit="10" stroke-width="4"/><path fill="#c7b7c7" stroke="none" paint-order="stroke fill markers" d=" M 202.09718907899762 626.8437300155307 L 202.08423356648728 608.9551908869519 L 216.40024707435447 616.1002421283752 L 202.09718907899762 626.8437300155307 Z"/><path fill="none" stroke="#c7b7c7" paint-order="fill stroke markers" d=" M 200.60263581957273 457.98995488460196 C 234.97688327140213 520.2536272914278 392.19148404398373 628.4373441256148 462.6269704405421 638.2961496082469" stroke-miterlimit="10" stroke-width="4"/><path fill="#c7b7c7" stroke="none" paint-order="stroke fill markers" d=" M 470.4932030911863 639.7529899858928 L 453.30389741225207 644.7055418812453 L 456.21757816754376 628.9730765799569 L 470.4932030911863 639.7529899858928 Z"/><path fill="none" stroke="#c7b7c7" paint-order="fill stroke markers" d=" M 477.96877531323986 628.652897898601 C 443.5945278614105 566.3892254917752 286.37992708882877 458.20550865758827 215.9444406922704 448.34670317495625" stroke-miterlimit="10" stroke-width="4"/><path fill="#c7b7c7" stroke="none" paint-order="stroke fill markers" d=" M 208.07820804162623 446.8898627973104 L 225.26751372056046 441.93731090195797 L 222.3538329652687 457.66977620324633 L 208.07820804162623 446.8898627973104 Z"/><path fill="none" stroke="#c7b7c7" paint-order="fill stroke markers" d=" M 443.711669476352 437.83016079296004 C 410.82914503706104 480.4751046927897 425.4727742278692 593.7663072014707 468.1177181276989 626.6488316407616" stroke-miterlimit="10" stroke-width="4"/><path fill="#c7b7c7" stroke="none" paint-order="stroke fill markers" d=" M 474.00521287558087 632.0652331762519 L 456.8138218443266 627.1199248531533 L 467.6466249153072 615.3449353573893 L 474.00521287558087 632.0652331762519 Z"/><path fill="none" stroke="#c7b7c7" paint-order="fill stroke markers" d=" M 494.85974165646076 628.8126919902433 C 527.7422660957517 586.1677480904135 513.0986369049434 472.87654558173244 470.4536930051136 439.9940211424415" stroke-miterlimit="10" stroke-width="4"/><path fill="#c7b7c7" stroke="none" paint-order="stroke fill markers" d=" M 464.56619825723163 434.5776196069512 L 481.7575892884859 439.5229279300499 L 470.9247862175053 451.29791742581386 L 464.56619825723163 434.5776196069512 Z"/><path fill="none" stroke="#c7b7c7" paint-order="fill stroke markers" d=" M 497.3824015543681 630.7947903623539 C 550.9794513182078 584.596158781593 536.4863150653139 467.7399684186511 473.22717446621164 436.03447309078405" stroke-miterlimit="10" stroke-width="4"/><path fill="#c7b7c7" stroke="none" paint-order="stroke fill markers" d=" M 466.3654601281848 431.9214600415321 L 484.2019018534904 433.28577180200915 L 475.97587575498653 447.00920047806284 L 466.3654601281848 431.9214600415321 Z"/><path fill="none" stroke="#c7b7c7" paint-order="fill stroke markers" d=" M 474.4587357935803 631.5453980883415 C 423.44189947811725 578.10678089705 266.75871921798563 574.4741095833075 213.3201020266942 625.4909458987705" stroke-miterlimit="10" stroke-width="4"/><path fill="#c7b7c7" stroke="none" paint-order="stroke fill markers" d=" M 207.18645718818428 630.6269366498351 L 214.31775611413957 614.2213103091962 L 224.58973761626868 626.488599986216 L 207.18645718818428 630.6269366498351 Z"/><path fill="none" stroke="#c7b7c7" paint-order="fill stroke markers" d=" M 474.3849539446282 653.015916133368 C 423.0020511506609 706.1026441868263 266.29760487952257 708.6583820760629 213.21087682606424 657.2754792820956" stroke-miterlimit="10" stroke-width="4"/><path fill="#c7b7c7" stroke="none" paint-order="stroke fill markers" d=" M 207.11267533923234 652.0974546948614 L 224.48710290013028 656.3553023824977 L 214.13105372566204 668.5517053561616 L 207.11267533923234 652.0974546948614 Z"/><path fill="none" stroke="#c7b7c7" paint-order="fill stroke markers" d=" M 205.56382194571728 629.0592763479372 C 239.34340313518737 596.2226803840978 240.75788097363338 496.29841465413347 207.92128500979396 462.5188334646634" stroke-miterlimit="10" stroke-width="4"/><path fill="#c7b7c7" stroke="none" paint-order="stroke fill markers" d=" M 202.93243586855692 456.2649239477309 L 219.16404366796345 463.78389384035876 L 206.65622463409855 473.76159212283284 L 202.93243586855692 456.2649239477309 Z"/><path fill="none" stroke="#c7b7c7" paint-order="fill stroke markers" d=" M 182.00758918709505 456.5835764352658 C 148.22800799762496 489.4201723991053 146.81353015917904 589.3444381290697 179.65012612301854 623.1240193185398" stroke-miterlimit="10" stroke-width="4"/><path fill="#c7b7c7" stroke="none" paint-order="stroke fill markers" d=" M 184.63897526425558 629.3779288354723 L 168.40736746484905 621.8589589428443 L 180.915186498714 611.8812606603703 L 184.63897526425558 629.3779288354723 Z"/><path fill="none" stroke="#c7b7c7" paint-order="fill stroke markers" d=" M 496.06019701945377 629.6541726705182 L 792.6239683868349 245.32230697322666" stroke-miterlimit="10" stroke-width="4"/><path fill="#c7b7c7" stroke="none" paint-order="stroke fill markers" d=" M 797.5112141133587 238.98868011268496 L 794.0703495208529 256.5431795602921 L 781.4030957997695 246.7686881072446 L 797.5112141133587 238.98868011268496 Z"/><path fill="none" stroke="#c7b7c7" paint-order="fill stroke markers" d=" M 915.5089396495976 428.3198690203108 L 917.9508544416193 603.3237624485377" stroke-miterlimit="10" stroke-width="4"/><path fill="#c7b7c7" stroke="none" paint-order="stroke fill markers" d=" M 918.062471483215 611.3229837628922 L 909.840016085669 595.4361581757786 L 925.8384587143782 595.2129240925873 L 918.062471483215 611.3229837628922 Z"/><path fill="none" stroke="#c7b7c7" paint-order="fill stroke markers" d=" M 207.6586774524119 439.8861433801039 L 935.2262477373978 229.97435090884812" stroke-miterlimit="10" stroke-width="4"/><path fill="#c7b7c7" stroke="none" paint-order="stroke fill markers" d=" M 942.9127336804006 227.75670940309928 L 929.7574033001438 239.87847835759982 L 925.3221202886461 224.50550647159417 L 942.9127336804006 227.75670940309928 Z"/><path fill="none" stroke="#c7b7c7" paint-order="fill stroke markers" d=" M 313.23451960472414 171.60022691207183 L 934.3624845089295 221.40322561089616" stroke-miterlimit="10" stroke-width="4"/><path fill="#c7b7c7" stroke="none" paint-order="stroke fill markers" d=" M 942.3368915280884 222.0426258711313 L 925.7486772295354 228.73823236981997 L 927.0274777500056 212.78941833150208 L 942.3368915280884 222.0426258711313 Z"/><path fill="none" stroke="#c7b7c7" paint-order="fill stroke markers" d=" M 1059.6969336334935 508.82448300191703 L 935.2403022551432 425.656120650933" stroke-miterlimit="10" stroke-width="4"/><path fill="#c7b7c7" stroke="none" paint-order="stroke fill markers" d=" M 928.5887700255643 421.2112225644892 L 946.3367325711661 423.4494865077979 L 937.4469363982785 436.7525509669559 L 928.5887700255643 421.2112225644892 Z"/><path fill="none" stroke="#c7b7c7" paint-order="fill stroke markers" d=" M 1057.753615057941 512.8616711792114 L 796.1552801184718 429.6003383849915" stroke-miterlimit="10" stroke-width="4"/><path fill="#c7b7c7" stroke="none" paint-order="stroke fill markers" d=" M 788.5320886011166 427.17403438719487 L 806.2047756336236 424.403450865433 L 801.3521676380302 439.64983390014334 L 788.5320886011166 427.17403438719487 Z"/><path fill="none" stroke="#c7b7c7" paint-order="fill stroke markers" d=" M 1057.0780144371863 519.2923908549794 L 798.1686810496038 544.9542588713394" stroke-miterlimit="10" stroke-width="4"/><path fill="#c7b7c7" stroke="none" paint-order="stroke fill markers" d=" M 790.2076892218713 545.7433147114268 L 805.340617037249 536.2042112035195 L 806.9187287174237 552.1261948589846 L 790.2076892218713 545.7433147114268 Z"/><path fill="none" stroke="#c7b7c7" paint-order="fill stroke markers" d=" M 1059.9443171785585 526.9635600046527 L 937.8692269375455 613.4475051468296" stroke-miterlimit="10" stroke-width="4"/><path fill="#c7b7c7" stroke="none" paint-order="stroke fill markers" d=" M 931.3413864804991 618.0721455617536 L 939.7724269796679 602.2950242748592 L 949.0217078095159 615.350705188952 L 931.3413864804991 618.0721455617536 Z"/><path fill="none" stroke="#c7b7c7" paint-order="fill stroke markers" d=" M 1058.9977431760065 525.4561689472888 L 796.2890879413736 670.7085917328753" stroke-miterlimit="10" stroke-width="4"/><path fill="#c7b7c7" stroke="none" paint-order="stroke fill markers" d=" M 789.2879604830512 674.5795366191174 L 799.419270513454 659.8365193883109 L 807.1611602859382 673.8387743049558 L 789.2879604830512 674.5795366191174 Z"/><path fill="#68aeba" stroke="#c7b7c7" paint-order="stroke fill markers" d=" M 312.28570556640625 170.32142639160156 A 15 15 0 1 1 312.2856980664069 170.30642639410155 Z" stroke-miterlimit="10" stroke-width="2"/><g><text fill="none" stroke="#68aeba" font-family="sans-serif" font-size="16px" font-style="normal" font-weight="bold" text-decoration="normal" x="292.83648681640625" y="170.32142639160156" text-anchor="start" dominant-baseline="central" stroke-linejoin="round" stroke-miterlimit="10" stroke-width="4">0</text></g><text fill="#f0d543" stroke="none" font-family="sans-serif" font-size="16px" font-style="normal" font-weight="bold" text-decoration="normal" x="292.83648681640625" y="170.32142639160156" text-anchor="start" dominant-baseline="central">0</text><text fill="#68aeba" stroke="none" font-family="sans-serif" font-size="12px" font-style="normal" font-weight="normal" text-decoration="normal" x="297.28570556640625" y="145.32142639160156" text-anchor="start" dominant-baseline="central"></text><path fill="#68aeba" stroke="#c7b7c7" paint-order="stroke fill markers" d=" M 497.28570556640625 238.32142639160156 A 15 15 0 1 1 497.2856980664069 238.30642639410155 Z" stroke-miterlimit="10" stroke-width="2"/><g><text fill="none" stroke="#68aeba" font-family="sans-serif" font-size="16px" font-style="normal" font-weight="bold" text-decoration="normal" x="477.83648681640625" y="238.32142639160156" text-anchor="start" dominant-baseline="central" stroke-linejoin="round" stroke-miterlimit="10" stroke-width="4">1</text></g><text fill="#f0d543" stroke="none" font-family="sans-serif" font-size="16px" font-style="normal" font-weight="bold" text-decoration="normal" x="477.83648681640625" y="238.32142639160156" text-anchor="start" dominant-baseline="central">1</text><text fill="#68aeba" stroke="none" font-family="sans-serif" font-size="12px" font-style="normal" font-weight="normal" text-decoration="normal" x="482.28570556640625" y="213.32142639160156" text-anchor="start" dominant-baseline="central"></text><path fill="#68aeba" stroke="#c7b7c7" paint-order="stroke fill markers" d=" M 467.28570556640625 424.32142639160156 A 15 15 0 1 1 467.2856980664069 424.30642639410155 Z" stroke-miterlimit="10" stroke-width="2"/><g><text fill="none" stroke="#68aeba" font-family="sans-serif" font-size="16px" font-style="normal" font-weight="bold" text-decoration="normal" x="447.83648681640625" y="424.32142639160156" text-anchor="start" dominant-baseline="central" stroke-linejoin="round" stroke-miterlimit="10" stroke-width="4">2</text></g><text fill="#f0d543" stroke="none" font-family="sans-serif" font-size="16px" font-style="normal" font-weight="bold" text-decoration="normal" x="447.83648681640625" y="424.32142639160156" text-anchor="start" dominant-baseline="central">2</text><text fill="#68aeba" stroke="none" font-family="sans-serif" font-size="12px" font-style="normal" font-weight="normal" text-decoration="normal" x="452.28570556640625" y="399.32142639160156" text-anchor="start" dominant-baseline="central"></text><path fill="#68aeba" stroke="#c7b7c7" paint-order="stroke fill markers" d=" M 207.28570556640625 444.32142639160156 A 15 15 0 1 1 207.28569806640687 444.30642639410155 Z" stroke-miterlimit="10" stroke-width="2"/><g><text fill="none" stroke="#68aeba" font-family="sans-serif" font-size="16px" font-style="normal" font-weight="bold" text-decoration="normal" x="187.83648681640625" y="444.32142639160156" text-anchor="start" dominant-baseline="central" stroke-linejoin="round" stroke-miterlimit="10" stroke-width="4">3</text></g><text fill="#f0d543" stroke="none" font-family="sans-serif" font-size="16px" font-style="normal" font-weight="bold" text-decoration="normal" x="187.83648681640625" y="444.32142639160156" text-anchor="start" dominant-baseline="central">3</text><text fill="#68aeba" stroke="none" font-family="sans-serif" font-size="12px" font-style="normal" font-weight="normal" text-decoration="normal" x="192.28570556640625" y="419.32142639160156" text-anchor="start" dominant-baseline="central"></text><path fill="#68aeba" stroke="#c7b7c7" paint-order="stroke fill markers" d=" M 117.28570556640625 261.32142639160156 A 15 15 0 1 1 117.28569806640688 261.30642639410155 Z" stroke-miterlimit="10" stroke-width="2"/><g><text fill="none" stroke="#68aeba" font-family="sans-serif" font-size="16px" font-style="normal" font-weight="bold" text-decoration="normal" x="97.83648681640625" y="261.32142639160156" text-anchor="start" dominant-baseline="central" stroke-linejoin="round" stroke-miterlimit="10" stroke-width="4">4</text></g><text fill="#f0d543" stroke="none" font-family="sans-serif" font-size="16px" font-style="normal" font-weight="bold" text-decoration="normal" x="97.83648681640625" y="261.32142639160156" text-anchor="start" dominant-baseline="central">4</text><text fill="#68aeba" stroke="none" font-family="sans-serif" font-size="12px" font-style="normal" font-weight="normal" text-decoration="normal" x="102.28570556640625" y="236.32142639160156" text-anchor="start" dominant-baseline="central"></text><path fill="#68aeba" stroke="#c7b7c7" paint-order="stroke fill markers" d=" M 210.28570556640625 641.3214263916016 A 15 15 0 1 1 210.28569806640687 641.3064263941015 Z" stroke-miterlimit="10" stroke-width="2"/><g><text fill="none" stroke="#68aeba" font-family="sans-serif" font-size="16px" font-style="normal" font-weight="bold" text-decoration="normal" x="190.83648681640625" y="641.3214263916016" text-anchor="start" dominant-baseline="central" stroke-linejoin="round" stroke-miterlimit="10" stroke-width="4">5</text></g><text fill="#f0d543" stroke="none" font-family="sans-serif" font-size="16px" font-style="normal" font-weight="bold" text-decoration="normal" x="190.83648681640625" y="641.3214263916016" text-anchor="start" dominant-baseline="central">5</text><text fill="#68aeba" stroke="none" font-family="sans-serif" font-size="12px" font-style="normal" font-weight="normal" text-decoration="normal" x="195.28570556640625" y="616.3214263916016" text-anchor="start" dominant-baseline="central"></text><path fill="#68aeba" stroke="#c7b7c7" paint-order="stroke fill markers" d=" M 501.28570556640625 642.3214263916016 A 15 15 0 1 1 501.2856980664069 642.3064263941015 Z" stroke-miterlimit="10" stroke-width="2"/><g><text fill="none" stroke="#68aeba" font-family="sans-serif" font-size="16px" font-style="normal" font-weight="bold" text-decoration="normal" x="481.83648681640625" y="642.3214263916016" text-anchor="start" dominant-baseline="central" stroke-linejoin="round" stroke-miterlimit="10" stroke-width="4">6</text></g><text fill="#f0d543" stroke="none" font-family="sans-serif" font-size="16px" font-style="normal" font-weight="bold" text-decoration="normal" x="481.83648681640625" y="642.3214263916016" text-anchor="start" dominant-baseline="central">6</text><text fill="#68aeba" stroke="none" font-family="sans-serif" font-size="12px" font-style="normal" font-weight="normal" text-decoration="normal" x="486.28570556640625" y="617.3214263916016" text-anchor="start" dominant-baseline="central"></text><path fill="#68aeba" stroke="#c7b7c7" paint-order="stroke fill markers" d=" M 673.2857055664062 231.32142639160156 A 15 15 0 1 1 673.2856980664069 231.30642639410155 Z" stroke-miterlimit="10" stroke-width="2"/><g><text fill="none" stroke="#68aeba" font-family="sans-serif" font-size="16px" font-style="normal" font-weight="bold" text-decoration="normal" x="653.8364868164062" y="231.32142639160156" text-anchor="start" dominant-baseline="central" stroke-linejoin="round" stroke-miterlimit="10" stroke-width="4">7</text></g><text fill="#f0d543" stroke="none" font-family="sans-serif" font-size="16px" font-style="normal" font-weight="bold" text-decoration="normal" x="653.8364868164062" y="231.32142639160156" text-anchor="start" dominant-baseline="central">7</text><text fill="#68aeba" stroke="none" font-family="sans-serif" font-size="12px" font-style="normal" font-weight="normal" text-decoration="normal" x="658.2857055664062" y="206.32142639160156" text-anchor="start" dominant-baseline="central"></text><path fill="#68aeba" stroke="#c7b7c7" paint-order="stroke fill markers" d=" M 822.2857055664062 226.32142639160156 A 15 15 0 1 1 822.2856980664069 226.30642639410155 Z" stroke-miterlimit="10" stroke-width="2"/><g><text fill="none" stroke="#68aeba" font-family="sans-serif" font-size="16px" font-style="normal" font-weight="bold" text-decoration="normal" x="802.8364868164062" y="226.32142639160156" text-anchor="start" dominant-baseline="central" stroke-linejoin="round" stroke-miterlimit="10" stroke-width="4">8</text></g><text fill="#f0d543" stroke="none" font-family="sans-serif" font-size="16px" font-style="normal" font-weight="bold" text-decoration="normal" x="802.8364868164062" y="226.32142639160156" text-anchor="start" dominant-baseline="central">8</text><text fill="#68aeba" stroke="none" font-family="sans-serif" font-size="12px" font-style="normal" font-weight="normal" text-decoration="normal" x="807.2857055664062" y="201.32142639160156" text-anchor="start" dominant-baseline="central"></text><path fill="#68aeba" stroke="#c7b7c7" paint-order="stroke fill markers" d=" M 973.2857055664062 223.32142639160156 A 15 15 0 1 1 973.2856980664069 223.30642639410155 Z" stroke-miterlimit="10" stroke-width="2"/><g><text fill="none" stroke="#68aeba" font-family="sans-serif" font-size="16px" font-style="normal" font-weight="bold" text-decoration="normal" x="953.8364868164062" y="223.32142639160156" text-anchor="start" dominant-baseline="central" stroke-linejoin="round" stroke-miterlimit="10" stroke-width="4">9</text></g><text fill="#f0d543" stroke="none" font-family="sans-serif" font-size="16px" font-style="normal" font-weight="bold" text-decoration="normal" x="953.8364868164062" y="223.32142639160156" text-anchor="start" dominant-baseline="central">9</text><text fill="#68aeba" stroke="none" font-family="sans-serif" font-size="12px" font-style="normal" font-weight="normal" text-decoration="normal" x="958.2857055664062" y="198.32142639160156" text-anchor="start" dominant-baseline="central"></text><path fill="#68aeba" stroke="#c7b7c7" paint-order="stroke fill markers" d=" M 788.2857055664062 422.32142639160156 A 15 15 0 1 1 788.2856980664069 422.30642639410155 Z" stroke-miterlimit="10" stroke-width="2"/><g><text fill="none" stroke="#68aeba" font-family="sans-serif" font-size="16px" font-style="normal" font-weight="bold" text-decoration="normal" x="764.3872680664062" y="422.32142639160156" text-anchor="start" dominant-baseline="central" stroke-linejoin="round" stroke-miterlimit="10" stroke-width="4">10</text></g><text fill="#f0d543" stroke="none" font-family="sans-serif" font-size="16px" font-style="normal" font-weight="bold" text-decoration="normal" x="764.3872680664062" y="422.32142639160156" text-anchor="start" dominant-baseline="central">10</text><text fill="#68aeba" stroke="none" font-family="sans-serif" font-size="12px" font-style="normal" font-weight="normal" text-decoration="normal" x="773.2857055664062" y="397.32142639160156" text-anchor="start" dominant-baseline="central"></text><path fill="#68aeba" stroke="#c7b7c7" paint-order="stroke fill markers" d=" M 930.2857055664062 412.32142639160156 A 15 15 0 1 1 930.2856980664069 412.30642639410155 Z" stroke-miterlimit="10" stroke-width="2"/><g><text fill="none" stroke="#68aeba" font-family="sans-serif" font-size="16px" font-style="normal" font-weight="bold" text-decoration="normal" x="906.8286743164062" y="412.32142639160156" text-anchor="start" dominant-baseline="central" stroke-linejoin="round" stroke-miterlimit="10" stroke-width="4">11</text></g><text fill="#f0d543" stroke="none" font-family="sans-serif" font-size="16px" font-style="normal" font-weight="bold" text-decoration="normal" x="906.8286743164062" y="412.32142639160156" text-anchor="start" dominant-baseline="central">11</text><text fill="#68aeba" stroke="none" font-family="sans-serif" font-size="12px" font-style="normal" font-weight="normal" text-decoration="normal" x="915.2857055664062" y="387.32142639160156" text-anchor="start" dominant-baseline="central"></text><path fill="#68aeba" stroke="#c7b7c7" paint-order="stroke fill markers" d=" M 789.2857055664062 547.3214263916016 A 15 15 0 1 1 789.2856980664069 547.3064263941015 Z" stroke-miterlimit="10" stroke-width="2"/><g><text fill="none" stroke="#68aeba" font-family="sans-serif" font-size="16px" font-style="normal" font-weight="bold" text-decoration="normal" x="765.3872680664062" y="547.3214263916016" text-anchor="start" dominant-baseline="central" stroke-linejoin="round" stroke-miterlimit="10" stroke-width="4">12</text></g><text fill="#f0d543" stroke="none" font-family="sans-serif" font-size="16px" font-style="normal" font-weight="bold" text-decoration="normal" x="765.3872680664062" y="547.3214263916016" text-anchor="start" dominant-baseline="central">12</text><text fill="#68aeba" stroke="none" font-family="sans-serif" font-size="12px" font-style="normal" font-weight="normal" text-decoration="normal" x="774.2857055664062" y="522.3214263916016" text-anchor="start" dominant-baseline="central"></text><path fill="#68aeba" stroke="#c7b7c7" paint-order="stroke fill markers" d=" M 790.2857055664062 682.3214263916016 A 15 15 0 1 1 790.2856980664069 682.3064263941015 Z" stroke-miterlimit="10" stroke-width="2"/><g><text fill="none" stroke="#68aeba" font-family="sans-serif" font-size="16px" font-style="normal" font-weight="bold" text-decoration="normal" x="766.3872680664062" y="682.3214263916016" text-anchor="start" dominant-baseline="central" stroke-linejoin="round" stroke-miterlimit="10" stroke-width="4">13</text></g><text fill="#f0d543" stroke="none" font-family="sans-serif" font-size="16px" font-style="normal" font-weight="bold" text-decoration="normal" x="766.3872680664062" y="682.3214263916016" text-anchor="start" dominant-baseline="central">13</text><text fill="#68aeba" stroke="none" font-family="sans-serif" font-size="12px" font-style="normal" font-weight="normal" text-decoration="normal" x="775.2857055664062" y="657.3214263916016" text-anchor="start" dominant-baseline="central"></text><path fill="#68aeba" stroke="#c7b7c7" paint-order="stroke fill markers" d=" M 933.2857055664062 627.3214263916016 A 15 15 0 1 1 933.2856980664069 627.3064263941015 Z" stroke-miterlimit="10" stroke-width="2"/><g><text fill="none" stroke="#68aeba" font-family="sans-serif" font-size="16px" font-style="normal" font-weight="bold" text-decoration="normal" x="909.3872680664062" y="627.3214263916016" text-anchor="start" dominant-baseline="central" stroke-linejoin="round" stroke-miterlimit="10" stroke-width="4">14</text></g><text fill="#f0d543" stroke="none" font-family="sans-serif" font-size="16px" font-style="normal" font-weight="bold" text-decoration="normal" x="909.3872680664062" y="627.3214263916016" text-anchor="start" dominant-baseline="central">14</text><text fill="#68aeba" stroke="none" font-family="sans-serif" font-size="12px" font-style="normal" font-weight="normal" text-decoration="normal" x="918.2857055664062" y="602.3214263916016" text-anchor="start" dominant-baseline="central"></text><path fill="#68aeba" stroke="#c7b7c7" paint-order="stroke fill markers" d=" M 1087.9999980926514 517.7142791748047 A 15 15 0 1 1 1087.999990592652 517.6992791773047 Z" stroke-miterlimit="10" stroke-width="2"/><g><text fill="none" stroke="#68aeba" font-family="sans-serif" font-size="16px" font-style="normal" font-weight="bold" text-decoration="normal" x="1064.1015605926514" y="517.7142791748047" text-anchor="start" dominant-baseline="central" stroke-linejoin="round" stroke-miterlimit="10" stroke-width="4">15</text></g><text fill="#f0d543" stroke="none" font-family="sans-serif" font-size="16px" font-style="normal" font-weight="bold" text-decoration="normal" x="1064.1015605926514" y="517.7142791748047" text-anchor="start" dominant-baseline="central">15</text><text fill="#68aeba" stroke="none" font-family="sans-serif" font-size="12px" font-style="normal" font-weight="normal" text-decoration="normal" x="1072.9999980926514" y="492.7142791748047" text-anchor="start" dominant-baseline="central"></text></g></g></svg>