<svg version="1.1" xmlns="http://www.w3.org/2000/svg" xmlns:xlink="http://www.w3.org/1999/xlink" width="899.5634429050567" height="924.1667611243811"><defs/><g><g transform="translate(-128.9365551875947,-25.837304896275157)"><rect fill="#FFFFFF" stroke="none" x="128.9365551875947" y="25.837304896275157" width="3626.050000000001" height="1518.6200000000003"/><rect fill="#ffffff" stroke="none" x="128.9365551875947" y="25.837304896275157" width="3626.050000000001" height="1518.6200000000003"/><path fill="none" stroke="#c7b7c7" paint-order="fill stroke markers" d=" M 434.6110469553053 791.8301229122993 C 502.22366432456624 773.7514912199651 642.7995879799914 649.2276343152502 668.9042530476806 584.2903614044409" stroke-miterlimit="10" stroke-width="4"/><path fill="#c7b7c7" stroke="none" paint-order="stroke fill markers" d=" M 672.2168647780015 577.0084246068478 L 672.8735781149529 594.884909932355 L 658.3097045197668 588.2596864717132 L 672.2168647780015 577.0084246068478 Z"/><path fill="none" stroke="#c7b7c7" paint-order="fill stroke markers" d=" M 956.1449961039933 781.0430536181591 C 926.5124584498873 713.087792752366 773.8480550410812 585.55421185939 701.7043237559832 568.4870854631989" stroke-miterlimit="10" stroke-width="4"/><path fill="#c7b7c7" stroke="none" paint-order="stroke fill markers" d=" M 694.0043772278032 566.3166423141694 L 711.5747134331926 562.9575820840485 L 707.2338271351335 578.3574751404085 L 694.0043772278032 566.3166423141694 Z"/><path fill="none" stroke="#c7b7c7" paint-order="fill stroke markers" d=" M 433.8200888857403 803.4372357518696 C 535.117562946716 854.6406106722688 839.675550597537 855.9717416080563 941.4167349704419 805.6557873115153" stroke-miterlimit="10" stroke-width="4"/><path fill="#c7b7c7" stroke="none" paint-order="stroke fill markers" d=" M 948.6865892956406 802.3167428238827 L 937.4859251328758 816.2646861243467 L 930.8078361576106 801.7249774739493 L 948.6865892956406 802.3167428238827 Z"/><path fill="none" stroke="#c7b7c7" paint-order="fill stroke markers" d=" M 672.788783909794 547.3611668354519 L 633.5916346745242 445.12373657218546" stroke-miterlimit="10" stroke-width="4"/><path fill="#c7b7c7" stroke="none" paint-order="stroke fill markers" d=" M 630.7277558139 437.6539174397252 L 643.9253326676089 449.7296768440214 L 628.9856944026883 455.45743456527003 L 630.7277558139 437.6539174397252 Z"/><path fill="none" stroke="#c7b7c7" paint-order="fill stroke markers" d=" M 639.3287943619116 429.833660993055 C 670.4779465809225 448.25756510740524 767.344596843769 455.09595231903285 800.7732114666558 441.2309730124343" stroke-miterlimit="10" stroke-width="4"/><path fill="#c7b7c7" stroke="none" paint-order="stroke fill markers" d=" M 808.3809581966045 438.75666711118555 L 795.6397706379557 451.31302564363176 L 790.6911588354583 436.09753218373424 L 808.3809581966045 438.75666711118555 Z"/><path fill="none" stroke="#c7b7c7" paint-order="fill stroke markers" d=" M 809.0508103805143 426.0658811092288 C 777.9016581615034 407.6419769948786 681.0350078986569 400.803589783251 647.6063932757702 414.6685690898496" stroke-miterlimit="10" stroke-width="4"/><path fill="#c7b7c7" stroke="none" paint-order="stroke fill markers" d=" M 639.9986465458214 417.1428749910983 L 652.7398341044702 404.5865164586521 L 657.6884459069677 419.8020099185495 L 639.9986465458214 417.1428749910983 Z"/><path fill="none" stroke="#c7b7c7" paint-order="fill stroke markers" d=" M 833.4742630327162 420.7716449008788 C 850.1525261501504 396.2961402827473 919.5509631737503 357.5688449401526 949.1383247387162 356.226152663221" stroke-miterlimit="10" stroke-width="4"/><path fill="#c7b7c7" stroke="none" paint-order="stroke fill markers" d=" M 957.0625446353249 355.12763592225167 L 942.3126215830767 365.2488893007991 L 940.1155881011381 349.4004495075816 L 957.0625446353249 355.12763592225167 Z"/><path fill="none" stroke="#c7b7c7" paint-order="fill stroke markers" d=" M 839.317060107101 431.7719061800323 C 868.9346504881776 431.6573332979255 939.8793799442328 395.8412499235773 957.5582758671933 372.07843388945207" stroke-miterlimit="10" stroke-width="4"/><path fill="#c7b7c7" stroke="none" paint-order="stroke fill markers" d=" M 962.90534170971 366.12789720140523 L 958.1617467127235 383.37603642001557 L 946.2606733366299 372.68190473498225 L 962.90534170971 366.12789720140523 Z"/><path fill="none" stroke="#c7b7c7" paint-order="fill stroke markers" d=" M 983.1294296843415 484.783947056362 C 969.145435891292 464.82302589943464 959.536956176286 400.1360225711495 967.1152968259983 376.9722748425535" stroke-miterlimit="10" stroke-width="4"/><path fill="#c7b7c7" stroke="none" paint-order="stroke fill markers" d=" M 968.7743995652193 369.1462044300981 L 973.2822644992326 386.4574479942299 L 957.6301236743219 383.1392425157879 L 968.7743995652193 369.1462044300981 Z"/><path fill="none" stroke="#c7b7c7" paint-order="fill stroke markers" d=" M 995.2255966200833 483.2823539195112 C 1003.9045346064413 460.5081033003126 997.4048850306624 395.43517623060626 984.3928473271184 374.82747547000065" stroke-miterlimit="10" stroke-width="4"/><path fill="#c7b7c7" stroke="none" paint-order="stroke fill markers" d=" M 980.8705665009611 367.6446112932474 L 995.0979923300289 378.4880588205966 L 980.7322639765224 385.53262047291116 L 980.8705665009611 367.6446112932474 Z"/><path fill="none" stroke="#c7b7c7" paint-order="fill stroke markers" d=" M 976.0982568604437 492.88863687130515 L 845.732218498086 441.9237263827285" stroke-miterlimit="10" stroke-width="4"/><path fill="#c7b7c7" stroke="none" paint-order="stroke fill markers" d=" M 838.2813478819822 439.0109052309787 L 856.0959102659397 437.38567691837443 L 850.2702679624401 452.2874181505821 L 838.2813478819822 439.0109052309787 Z"/><path fill="none" stroke="#c7b7c7" paint-order="fill stroke markers" d=" M 798.5403114004786 80.72890347448887 C 753.0672132923082 100.42165432367379 667.5630788517215 202.25197409152196 656.0334206661672 250.44610308756916" stroke-miterlimit="10" stroke-width="4"/><path fill="#c7b7c7" stroke="none" paint-order="stroke fill markers" d=" M 653.7049501792477 258.09974439034426 L 650.7082498503116 240.46399129787457 L 666.0155324558618 245.12093227171354 L 653.7049501792477 258.09974439034426 Z"/><path fill="none" stroke="#c7b7c7" paint-order="fill stroke markers" d=" M 663.8182156485889 266.35791382684755 C 709.2913137567591 246.6651629776627 794.7954481973461 144.83484320981466 806.3251063829003 96.64071421376751" stroke-miterlimit="10" stroke-width="4"/><path fill="#c7b7c7" stroke="none" paint-order="stroke fill markers" d=" M 808.6535768698199 88.98707291099241 L 811.6502771987559 106.6228260034621 L 796.3429945932057 101.96588502962312 L 808.6535768698199 88.98707291099241 Z"/><path fill="none" stroke="#c7b7c7" paint-order="fill stroke markers" d=" M 665.3265693967764 271.04739423679695 C 729.6826308855998 265.99545413661855 818.6388129685671 161.88345175311605 813.5868728683887 97.52739026429275" stroke-miterlimit="10" stroke-width="4"/><path fill="#c7b7c7" stroke="none" paint-order="stroke fill markers" d=" M 813.549934959583 89.52747554031643 L 821.6237255011708 105.4903670794633 L 805.6238960532182 105.56424289707483 L 813.549934959583 89.52747554031643 Z"/><path fill="none" stroke="#c7b7c7" paint-order="fill stroke markers" d=" M 798.7119263105097 81.06062982872054 C 743.8145306238468 113.6229385295333 572.9860105348807 125.89560458748852 513.9977261622329 101.51507325864591" stroke-miterlimit="10" stroke-width="4"/><path fill="#c7b7c7" stroke="none" paint-order="stroke fill markers" d=" M 506.46481947447165 98.82150372483355 L 524.2242023838064 96.67573610469707 L 518.8370633161817 111.74154948021952 L 506.46481947447165 98.82150372483355 Z"/><path fill="none" stroke="#c7b7c7" paint-order="fill stroke markers" d=" M 797.9055418941224 67.79194079543812 C 739.4688863239226 42.117336867141894 568.4113882414874 50.62227412347079 512.8097117567305 81.96683622265294" stroke-miterlimit="10" stroke-width="4"/><path fill="#c7b7c7" stroke="none" paint-order="stroke fill markers" d=" M 505.6584350580843 85.55281469155088 L 516.3750099864789 71.2295810551088 L 523.5469669242747 85.53213445240125 L 505.6584350580843 85.55281469155088 Z"/><path fill="none" stroke="#c7b7c7" paint-order="fill stroke markers" d=" M 503.9810005079746 103.12386474011238 C 564.8807022240146 159.0129687865584 740.0639108677436 151.49707228216738 795.9530149141897 90.59737056612738" stroke-miterlimit="10" stroke-width="4"/><path fill="#c7b7c7" stroke="none" paint-order="stroke fill markers" d=" M 801.6984798239611 85.03053726787007 L 795.7743833026757 101.90966877415602 L 784.6407167061611 90.41873895461336 L 801.6984798239611 85.03053726787007 Z"/><path fill="none" stroke="#c7b7c7" paint-order="fill stroke markers" d=" M 496.2909999727641 108.34661074176935 C 507.1214689210558 152.4749362823317 586.0685850456307 245.38635484173125 627.8695268470556 263.1989750074353" stroke-miterlimit="10" stroke-width="4"/><path fill="#c7b7c7" stroke="none" paint-order="stroke fill markers" d=" M 635.0093681894703 266.8076680679692 L 617.1209924441068 266.73012328931617 L 624.3383785651747 252.4504406044867 L 635.0093681894703 266.8076680679692 Z"/><path fill="none" stroke="#c7b7c7" paint-order="fill stroke markers" d=" M 644.7657519283745 258.2668337785022 C 633.9352829800828 214.13850823793985 554.9881668555079 121.22708967854024 513.187225054083 103.41446951283618" stroke-miterlimit="10" stroke-width="4"/><path fill="#c7b7c7" stroke="none" paint-order="stroke fill markers" d=" M 506.0473837116683 99.8057764523023 L 523.9357594570317 99.88332123095533 L 516.7183733359639 114.16300391578478 L 506.0473837116683 99.8057764523023 Z"/><path fill="none" stroke="#c7b7c7" paint-order="fill stroke markers" d=" M 649.6218972400261 257.54371765381416 C 654.9762442777497 198.45710321854904 574.3778431814375 101.7956610090659 515.2912287461724 96.44131397134228" stroke-miterlimit="10" stroke-width="4"/><path fill="#c7b7c7" stroke="none" paint-order="stroke fill markers" d=" M 507.406532035743 95.08796339423971 L 524.5292760337044 89.90996783801546 L 521.8225748794993 105.67936125887425 L 507.406532035743 95.08796339423971 Z"/><path fill="none" stroke="#c7b7c7" paint-order="fill stroke markers" d=" M 627.5954295995001 406.92619077584845 L 645.629311530533 297.22554124910266" stroke-miterlimit="10" stroke-width="4"/><path fill="#c7b7c7" stroke="none" paint-order="stroke fill markers" d=" M 646.9270272839573 289.33149704962455 L 652.2256399765866 306.41730120200515 L 636.4375515776304 303.8218696951564 L 646.9270272839573 289.33149704962455 Z"/><path fill="none" stroke="#c7b7c7" paint-order="fill stroke markers" d=" M 610.7663406046455 415.4065439227492 C 593.2343644567319 403.89176151068796 537.3398828072656 397.29465509923733 517.6088711888684 404.4113665703315" stroke-miterlimit="10" stroke-width="4"/><path fill="#c7b7c7" stroke="none" paint-order="stroke fill markers" d=" M 509.8129790775316 406.2069350564654 L 523.6091948140712 394.81990597286085 L 527.200331786339 410.41169019553433 L 509.8129790775316 406.2069350564654 Z"/><path fill="none" stroke="#c7b7c7" paint-order="fill stroke markers" d=" M 508.72653047999523 418.12925041159946 C 526.2585066279089 429.6440328236607 582.152988277375 436.24113923511146 601.8839998957723 429.12442776401736" stroke-miterlimit="10" stroke-width="4"/><path fill="#c7b7c7" stroke="none" paint-order="stroke fill markers" d=" M 609.6798920071091 427.32885927788345 L 595.8836762705695 438.715888361488 L 592.2925392983017 423.1241041388145 L 609.6798920071091 427.32885927788345 Z"/><path fill="none" stroke="#c7b7c7" paint-order="fill stroke markers" d=" M 613.5107910786141 411.57883476568486 C 596.4662842646754 389.1524285326829 537.2599146942645 381.07957940408807 514.8335084612626 398.1240862180268" stroke-miterlimit="10" stroke-width="4"/><path fill="#c7b7c7" stroke="none" paint-order="stroke fill markers" d=" M 507.8056063582851 401.9462050062077 L 518.039291776059 387.2740653268684 L 525.6835293524208 401.32986953282324 L 507.8056063582851 401.9462050062077 Z"/><path fill="none" stroke="#c7b7c7" paint-order="fill stroke markers" d=" M 611.6872647263556 431.589589328141 C 590.8698539723957 450.56574063863997 531.1795108757076 447.8038514734486 512.2033595652086 426.98644071948877" stroke-miterlimit="10" stroke-width="4"/><path fill="#c7b7c7" stroke="none" paint-order="stroke fill markers" d=" M 505.98208000602637 421.95695956866405 L 523.4541202752156 425.79464231113127 L 513.3951579735661 438.2372014294957 L 505.98208000602637 421.95695956866405 Z"/><path fill="none" stroke="#c7b7c7" paint-order="fill stroke markers" d=" M 615.9698252280208 409.50610072223634 C 599.7134520414519 375.2313485834219 537.2502199847222 366.10194025207306 511.86443846680453 394.29042016998835" stroke-miterlimit="10" stroke-width="4"/><path fill="#c7b7c7" stroke="none" paint-order="stroke fill markers" d=" M 505.76173059785054 399.4631328689701 L 512.7944336367768 383.0149996020526 L 523.1398590347403 395.2204153399606 L 505.76173059785054 399.4631328689701 Z"/><path fill="none" stroke="#c7b7c7" paint-order="fill stroke markers" d=" M 478.4930663575583 410.9001768453743 C 422.7016536557461 408.2857235986412 285.6649192753171 468.9607310486563 250.09850905684334 512.0251892620662" stroke-miterlimit="10" stroke-width="4"/><path fill="#c7b7c7" stroke="none" paint-order="stroke fill markers" d=" M 244.67537036128462 517.9064788050774 L 249.6403582093908 500.7207610234962 L 261.4029372954133 511.5670384146136 L 244.67537036128462 517.9064788050774 Z"/><path fill="none" stroke="#c7b7c7" paint-order="fill stroke markers" d=" M 220.68251067111188 271.4519771680825 C 256.89351211821145 323.96718707446723 406.818167478912 406.550489113271 470.55693627227953 409.0908138994222" stroke-miterlimit="10" stroke-width="4"/><path fill="#c7b7c7" stroke="none" paint-order="stroke fill markers" d=" M 478.5257103395453 409.7969582648836 L 461.8820178395524 416.3534436012265 L 463.2943065704752 400.41589546669496 L 478.5257103395453 409.7969582648836 Z"/><path fill="none" stroke="#c7b7c7" paint-order="fill stroke markers" d=" M 205.70633112053764 273.8131893999949 C 185.59810695076322 322.5254644954187 195.7930990578132 463.5647937281652 222.69798463228764 508.87873812123905" stroke-miterlimit="10" stroke-width="4"/><path fill="#c7b7c7" stroke="none" paint-order="stroke fill markers" d=" M 226.38099028040446 515.9805315141743 L 211.9131855912355 505.4599503764205 L 226.11677237710614 498.0939390801869 L 226.38099028040446 515.9805315141743 Z"/><path fill="none" stroke="#c7b7c7" paint-order="fill stroke markers" d=" M 239.45115254769658 514.8646867942327 C 259.55937671747097 466.15241169880886 249.3643846104209 325.1130824660623 222.45949903594644 279.79913807298846" stroke-miterlimit="10" stroke-width="4"/><path fill="#c7b7c7" stroke="none" paint-order="stroke fill markers" d=" M 218.77649338782962 272.69734468005316 L 233.24429807699858 283.217925817807 L 219.04071129112793 290.5839371140406 L 218.77649338782962 272.69734468005316 Z"/><path fill="none" stroke="#c7b7c7" paint-order="fill stroke markers" d=" M 484.81036041352877 398.0838171662662 C 448.5993589664292 345.56860725988156 298.6747036057286 262.9853052210778 234.93593481236113 260.44498043492666" stroke-miterlimit="10" stroke-width="4"/><path fill="#c7b7c7" stroke="none" paint-order="stroke fill markers" d=" M 226.96716074509538 259.73883606946526 L 243.61085324508826 253.18235073312226 L 242.19856451416553 269.1198988676538 L 226.96716074509538 259.73883606946526 Z"/><path fill="none" stroke="#c7b7c7" paint-order="fill stroke markers" d=" M 250.1572922100137 529.8849353335929 C 305.9487049118259 532.499388580326 442.98543929225497 471.8243811303107 478.55184951072874 428.7599229169008" stroke-miterlimit="10" stroke-width="4"/><path fill="#c7b7c7" stroke="none" paint-order="stroke fill markers" d=" M 483.9749882062875 422.87863337388956 L 479.0100003581813 440.06435115547083 L 467.2474212721588 429.21807376435333 L 483.9749882062875 422.87863337388956 Z"/><path fill="none" stroke="#c7b7c7" paint-order="fill stroke markers" d=" M 243.80236925891847 517.1973830648111 C 289.0700889985527 465.7261665894797 279.76484389500683 320.61776226703125 228.29362741967546 275.3500425273971" stroke-miterlimit="10" stroke-width="4"/><path fill="#c7b7c7" stroke="none" paint-order="stroke fill markers" d=" M 222.66932173933264 269.660825919281 L 239.60714970813433 275.41495345517035 L 228.22871649190222 286.6635648158559 L 222.66932173933264 269.660825919281 Z"/><path fill="none" stroke="#c7b7c7" paint-order="fill stroke markers" d=" M 201.3551144093157 271.4804931294165 C 156.08739466968146 322.9517096047479 165.39263977322722 468.0601139271963 216.8638562485586 513.3278336668305" stroke-miterlimit="10" stroke-width="4"/><path fill="#c7b7c7" stroke="none" paint-order="stroke fill markers" d=" M 222.48816192890138 519.0170502749467 L 205.5503339600997 513.2629227390573 L 216.92876717633186 502.0143113783717 L 222.48816192890138 519.0170502749467 Z"/><path fill="none" stroke="#c7b7c7" paint-order="fill stroke markers" d=" M 249.41657722708283 534.7760934579794 C 316.8865789122283 561.4335275144826 458.0777325247012 500.2146760715192 484.7351665812044 432.7446743863738" stroke-miterlimit="10" stroke-width="4"/><path fill="#c7b7c7" stroke="none" paint-order="stroke fill markers" d=" M 488.1607527309284 425.5151958760787 L 488.5390589417755 443.39973904639294 L 474.0801019211853 436.54856674694497 L 488.1607527309284 425.5151958760787 Z"/><path fill="none" stroke="#c7b7c7" paint-order="fill stroke markers" d=" M 489.18399181397774 395.7279476343446 C 466.74298538575874 316.2254292534612 313.82769817210516 230.63316132446448 234.3251797912217 253.07416775268345" stroke-miterlimit="10" stroke-width="4"/><path fill="#c7b7c7" stroke="none" paint-order="stroke fill markers" d=" M 226.51178561749404 254.79197783705217 L 240.4207638805806 243.5429634945871 L 243.85638404931805 259.1697518420424 L 226.51178561749404 254.79197783705217 Z"/><path fill="none" stroke="#c7b7c7" paint-order="fill stroke markers" d=" M 478.9810854671466 414.74381649729645 C 400.32927712304786 440.00529394057435 244.45934844198294 359.91979758934315 219.19787099870504 281.2679892452444" stroke-miterlimit="10" stroke-width="4"/><path fill="#c7b7c7" stroke="none" paint-order="stroke fill markers" d=" M 216.3088792706628 273.8078467000042 L 229.5470052719875 285.8391400624424 L 214.626720181507 291.6171235185269 L 216.3088792706628 273.8078467000042 Z"/><path fill="none" stroke="#c7b7c7" paint-order="fill stroke markers" d=" M 663.250438673644 567.0910139156648 C 595.6378213043831 585.1696456079989 455.0618976489581 709.6935025127136 428.9572325812689 774.6307754235228" stroke-miterlimit="10" stroke-width="4"/><path fill="#c7b7c7" stroke="none" paint-order="stroke fill markers" d=" M 425.64462085094806 781.912712221116 L 424.9879075139966 764.0362268956089 L 439.55178110918285 770.6614503562505 L 425.64462085094806 781.912712221116 Z"/><path fill="none" stroke="#c7b7c7" paint-order="fill stroke markers" d=" M 685.5034717734765 576.6946512571419 C 715.1360094275825 644.649912122935 867.8004128363885 772.183493015911 939.9441441214866 789.2506194121021" stroke-miterlimit="10" stroke-width="4"/><path fill="#c7b7c7" stroke="none" paint-order="stroke fill markers" d=" M 947.6440906496666 791.4210625611316 L 930.0737544442771 794.7801227912526 L 934.4146407423362 779.3802297348925 L 947.6440906496666 791.4210625611316 Z"/><path fill="none" stroke="#c7b7c7" paint-order="fill stroke markers" d=" M 948.6567813585935 788.6199957506501 C 847.3593072976178 737.4166208302507 542.8013196467966 736.0854898944633 441.0601352738916 786.4014441910043" stroke-miterlimit="10" stroke-width="4"/><path fill="#c7b7c7" stroke="none" paint-order="stroke fill markers" d=" M 433.7902809486929 789.7404886786369 L 444.99094511145773 775.792545378173 L 451.6690340867229 790.3322540285704 L 433.7902809486929 789.7404886786369 Z"/><path fill="none" stroke="#c7b7c7" paint-order="fill stroke markers" d=" M 430.98507869787517 807.5979117963764 C 533.0618856770843 911.3858763439109 841.8590429672001 913.9526126963991 945.6470075147347 811.8758057171899" stroke-miterlimit="10" stroke-width="4"/><path fill="#c7b7c7" stroke="none" paint-order="stroke fill markers" d=" M 951.5396821237503 806.4650399717281 L 945.165098651181 823.1792460716673 L 934.3435671602573 811.3938968536362 L 951.5396821237503 806.4650399717281 Z"/><path fill="none" stroke="#c7b7c7" paint-order="fill stroke markers" d=" M 430.9371881205832 785.5921915307916 C 532.5612872891058 681.3609170678103 841.3443477363617 677.4501541261224 945.575622199343 779.074253294645" stroke-miterlimit="10" stroke-width="4"/><path fill="#c7b7c7" stroke="none" paint-order="stroke fill markers" d=" M 951.4917915464586 784.4593197061436 L 934.2743864407289 779.6053562302619 L 945.044519263726 767.7730175360308 L 951.4917915464586 784.4593197061436 Z"/><path fill="none" stroke="#c7b7c7" paint-order="fill stroke markers" d=" M 960.917625490355 779.5908632937874 C 952.9306505464928 684.2044495432233 797.8705675048532 553.1052913331703 702.4841537542891 561.0922662770325" stroke-miterlimit="10" stroke-width="4"/><path fill="#c7b7c7" stroke="none" paint-order="stroke fill markers" d=" M 694.4883550709554 561.3515024928655 L 710.2207162217899 552.8372313778659 L 710.7391886534558 568.8288287445332 L 694.4883550709554 561.3515024928655 Z"/><path fill="none" stroke="#c7b7c7" paint-order="fill stroke markers" d=" M 680.7308423871149 578.1468415815136 C 688.717817330977 673.5332553320777 843.7779003726166 804.6324135421307 939.1643141231807 796.6454385982686" stroke-miterlimit="10" stroke-width="4"/><path fill="#c7b7c7" stroke="none" paint-order="stroke fill markers" d=" M 947.1601128065143 796.3862023824355 L 931.42775165568 804.9004734974352 L 930.9092792240139 788.9088761307679 L 947.1601128065143 796.3862023824355 Z"/><path fill="none" stroke="#c7b7c7" paint-order="fill stroke markers" d=" M 677.5404948012788 578.2710064950357 C 663.0722721858226 701.5990642449244 820.4789158867859 835.4732719431455 939.8849009695508 801.3946859920709" stroke-miterlimit="10" stroke-width="4"/><path fill="#c7b7c7" stroke="none" paint-order="stroke fill markers" d=" M 947.6665917267577 799.5385370327464 L 933.9593591716686 811.0325257086023 L 930.2470612530195 795.4691441941885 L 947.6665917267577 799.5385370327464 Z"/><path fill="none" stroke="#c7b7c7" paint-order="fill stroke markers" d=" M 964.1079730761912 779.4666983802653 C 978.5761956916474 656.1386406303766 821.1695519906841 522.2644329321555 701.7635669079191 556.3430188832301" stroke-miterlimit="10" stroke-width="4"/><path fill="#c7b7c7" stroke="none" paint-order="stroke fill markers" d=" M 693.9818761507122 558.1991678425546 L 707.6891087058013 546.7051791666987 L 711.4014066244504 562.2685606811125 L 693.9818761507122 558.1991678425546 Z"/><path fill="none" stroke="#c7b7c7" paint-order="fill stroke markers" d=" M 675.4936056513957 578.0126432507276 C 638.0261672109866 729.4267535335741 797.2426364861569 865.2361458317728 940.8543877766796 804.3616304143922" stroke-miterlimit="10" stroke-width="4"/><path fill="#c7b7c7" stroke="none" paint-order="stroke fill markers" d=" M 948.3229505197605 801.4944766772054 L 936.2529787707855 814.6973468946599 L 930.518671296412 799.760221408498 L 948.3229505197605 801.4944766772054 Z"/><path fill="none" stroke="#c7b7c7" paint-order="fill stroke markers" d=" M 693.3255173577094 556.2432281980957 C 834.3974311103009 489.6943222250203 998.8992665295464 619.051275144285 967.4952430564517 771.8381497302034" stroke-miterlimit="10" stroke-width="4"/><path fill="#c7b7c7" stroke="none" paint-order="stroke fill markers" d=" M 966.1548622260743 779.7250616245735 L 960.9487119924589 762.6108570054558 L 976.7225357811991 765.2916186662106 L 966.1548622260743 779.7250616245735 Z"/><path fill="none" stroke="#c7b7c7" paint-order="fill stroke markers" d=" M 662.5171239274152 562.1643018225598 C 572.25314918267 556.1331208652958 427.81041562965623 682.4823115465176 421.77923467239225 772.7462862912629" stroke-miterlimit="10" stroke-width="4"/><path fill="#c7b7c7" stroke="none" paint-order="stroke fill markers" d=" M 420.81650701707275 780.6881472483486 L 414.800101370626 763.8416976788577 L 430.6838232847975 765.7671529894966 L 420.81650701707275 780.6881472483486 Z"/><path fill="none" stroke="#c7b7c7" paint-order="fill stroke markers" d=" M 677.0449786118767 578.2329895796152 C 673.9773082223628 668.6462058637436 533.7559782118993 799.6645247056656 443.3427619277708 796.5968543161517" stroke-miterlimit="10" stroke-width="4"/><path fill="#c7b7c7" stroke="none" paint-order="stroke fill markers" d=" M 435.34436170153396 796.7568350054046 L 451.18118146475484 788.438473400662 L 451.50114284326054 804.4352738531358 L 435.34436170153396 796.7568350054046 Z"/><path fill="none" stroke="#c7b7c7" paint-order="fill stroke markers" d=" M 428.5823831599212 809.6843937960323 C 531.1170087302401 966.9525039876983 843.5202002913028 970.1520472211023 949.2543690950257 815.0169658517057" stroke-miterlimit="10" stroke-width="4"/><path fill="#c7b7c7" stroke="none" paint-order="stroke fill markers" d=" M 953.9514363916614 808.5410443874756 L 951.03322326262 826.1899546125713 L 938.0813803341599 816.7958200192999 L 953.9514363916614 808.5410443874756 Z"/><path fill="none" stroke="#c7b7c7" paint-order="fill stroke markers" d=" M 491.4348546611123 109.06972686645744 C 486.0805076233887 168.1563413017226 566.6789087197011 264.81778351120573 625.7655231549662 270.1721305489293" stroke-miterlimit="10" stroke-width="4"/><path fill="#c7b7c7" stroke="none" paint-order="stroke fill markers" d=" M 633.6502198653956 271.5254811260319 L 616.5274758674342 276.7034766822562 L 619.2341770216393 260.9340832613974 L 633.6502198653956 271.5254811260319 Z"/><path fill="none" stroke="#c7b7c7" paint-order="fill stroke markers" d=" M 199.00627921679768 269.3044022867893 C 127.63749949157905 323.3318150301569 136.5658127745017 472.0215833358759 213.8868013550021 517.1206827963209" stroke-miterlimit="10" stroke-width="4"/><path fill="#c7b7c7" stroke="none" paint-order="stroke fill markers" d=" M 220.54219069095495 521.5598035185907 L 202.79229129677944 519.3369514100041 L 211.67053274131897 506.0261727380983 L 220.54219069095495 521.5598035185907 Z"/><path fill="none" stroke="#c7b7c7" paint-order="fill stroke markers" d=" M 240.48960583664373 515.2699163028883 C 264.4175625391151 446.78434989714856 403.0378472014319 379.947935342246 471.5234136071716 403.8758920447174" stroke-miterlimit="10" stroke-width="4"/><path fill="#c7b7c7" stroke="none" paint-order="stroke fill markers" d=" M 479.23378134048914 406.0090187209876 L 461.67991919758384 409.45313310176465 L 465.94617255012434 394.0323976351296 L 479.23378134048914 406.0090187209876 Z"/><path fill="none" stroke="#c7b7c7" paint-order="fill stroke markers" d=" M 480.4968249684576 403.06840999303216 C 401.22594360374194 351.41377503085295 256.5310200886793 413.49225541690913 239.33861911001992 506.5325439697925" stroke-miterlimit="10" stroke-width="4"/><path fill="#c7b7c7" stroke="none" paint-order="stroke fill markers" d=" M 237.43857997940827 514.3036347106181 L 233.467567499806 496.8614140983554 L 249.00974898145708 500.66149235957863 L 237.43857997940827 514.3036347106181 Z"/><path fill="none" stroke="#c7b7c7" paint-order="fill stroke markers" d=" M 492.2905628553822 394.97380775240794 C 484.31061444350945 287.8181839365621 328.5751829336865 199.95445975375898 232.73151033901067 248.53426744773606" stroke-miterlimit="10" stroke-width="4"/><path fill="#c7b7c7" stroke="none" paint-order="stroke fill markers" d=" M 225.42241590994846 251.78651876444758 L 236.78835345136133 237.97292170196232 L 243.29285608478438 252.59111056008675 L 225.42241590994846 251.78651876444758 Z"/><path fill="none" stroke="#c7b7c7" paint-order="fill stroke markers" d=" M 434.9983966728278 799.9323431034775 C 548.3017753984734 830.9492841805696 695.8360434058122 702.6987054008378 680.8888433517259 586.1813784705911" stroke-miterlimit="10" stroke-width="4"/><path fill="#c7b7c7" stroke="none" paint-order="stroke fill markers" d=" M 680.2391778897253 578.2078011813511 L 689.5120861029666 593.5052902978305 L 673.5649315244866 594.8046212218317 L 680.2391778897253 578.2078011813511 Z"/><path fill="none" stroke="#c7b7c7" paint-order="fill stroke markers" d=" M 417.6223077392241 780.7133356466126 C 398.1452755534929 664.8670949580911 540.5689637200015 530.9639051422896 654.9951213500718 557.5413526202768" stroke-miterlimit="10" stroke-width="4"/><path fill="#c7b7c7" stroke="none" paint-order="stroke fill markers" d=" M 662.8630889561214 558.9887937244863 L 645.6797126398128 563.9618791221169 L 648.5745948482318 548.2259439100178 L 662.8630889561214 558.9887937244863 Z"/><path fill="none" stroke="#c7b7c7" paint-order="fill stroke markers" d=" M 434.4408663877221 801.9225130900747 C 570.8485968448945 858.4858062407645 720.5691869000257 728.7345055825716 683.9751831462742 585.6703453264198" stroke-miterlimit="10" stroke-width="4"/><path fill="#c7b7c7" stroke="none" paint-order="stroke fill markers" d=" M 682.2752909468505 577.8530333516845 L 693.4923873204331 591.7877651017313 L 677.8577633709625 595.1875495005786 L 682.2752909468505 577.8530333516845 Z"/><path fill="#68aeba" stroke="#c7b7c7" paint-order="stroke fill markers" d=" M 225.99999809265137 258.7142791748047 A 15 15 0 1 1 225.99999059265198 258.6992791773047 Z" stroke-miterlimit="10" stroke-width="2"/><g><text fill="none" stroke="#68aeba" font-family="sans-serif" font-size="16px" font-style="normal" font-weight="bold" text-decoration="normal" x="206.55077934265137" y="258.7142791748047" text-anchor="start" dominant-baseline="central" stroke-linejoin="round" stroke-miterlimit="10" stroke-width="4">0</text></g><text fill="#f0d543" stroke="none" font-family="sans-serif" font-size="16px" font-style="normal" font-weight="bold" text-decoration="normal" x="206.55077934265137" y="258.7142791748047" text-anchor="start" dominant-baseline="central">0</text><text fill="#68aeba" stroke="none" font-family="sans-serif" font-size="12px" font-style="normal" font-weight="normal" text-decoration="normal" x="210.99999809265137" y="233.7142791748047" text-anchor="start" dominant-baseline="central"></text><path fill="#68aeba" stroke="#c7b7c7" paint-order="stroke fill markers" d=" M 249.1574855755827 529.9635970194229 A 15 15 0 1 1 249.15747807558333 529.9485970219229 Z" stroke-miterlimit="10" stroke-width="2"/><g><text fill="none" stroke="#68aeba" font-family="sans-serif" font-size="16px" font-style="normal" font-weight="bold" text-decoration="normal" x="229.7082668255827" y="529.9635970194229" text-anchor="start" dominant-baseline="central" stroke-linejoin="round" stroke-miterlimit="10" stroke-width="4">1</text></g><text fill="#f0d543" stroke="none" font-family="sans-serif" font-size="16px" font-style="normal" font-weight="bold" text-decoration="normal" x="229.7082668255827" y="529.9635970194229" text-anchor="start" dominant-baseline="central">1</text><text fill="#68aeba" stroke="none" font-family="sans-serif" font-size="12px" font-style="normal" font-weight="normal" text-decoration="normal" x="234.1574855755827" y="504.9635970194229" text-anchor="start" dominant-baseline="central"></text><path fill="#68aeba" stroke="#c7b7c7" paint-order="stroke fill markers" d=" M 509.4928729919893 410.82151515954405 A 15 15 0 1 1 509.49286549198996 410.80651516204404 Z" stroke-miterlimit="10" stroke-width="2"/><g><text fill="none" stroke="#68aeba" font-family="sans-serif" font-size="16px" font-style="normal" font-weight="bold" text-decoration="normal" x="490.0436542419893" y="410.82151515954405" text-anchor="start" dominant-baseline="central" stroke-linejoin="round" stroke-miterlimit="10" stroke-width="4">2</text></g><text fill="#f0d543" stroke="none" font-family="sans-serif" font-size="16px" font-style="normal" font-weight="bold" text-decoration="normal" x="490.0436542419893" y="410.82151515954405" text-anchor="start" dominant-baseline="central">2</text><text fill="#68aeba" stroke="none" font-family="sans-serif" font-size="12px" font-style="normal" font-weight="normal" text-decoration="normal" x="494.4928729919893" y="385.82151515954405" text-anchor="start" dominant-baseline="central"></text><path fill="#68aeba" stroke="#c7b7c7" paint-order="stroke fill markers" d=" M 506.53429311033256 93.07003586960326 A 15 15 0 1 1 506.5342856103332 93.05503587210325 Z" stroke-miterlimit="10" stroke-width="2"/><g><text fill="none" stroke="#68aeba" font-family="sans-serif" font-size="16px" font-style="normal" font-weight="bold" text-decoration="normal" x="487.08507436033256" y="93.07003586960326" text-anchor="start" dominant-baseline="central" stroke-linejoin="round" stroke-miterlimit="10" stroke-width="4">7</text></g><text fill="#f0d543" stroke="none" font-family="sans-serif" font-size="16px" font-style="normal" font-weight="bold" text-decoration="normal" x="487.08507436033256" y="93.07003586960326" text-anchor="start" dominant-baseline="central">7</text><text fill="#68aeba" stroke="none" font-family="sans-serif" font-size="12px" font-style="normal" font-weight="normal" text-decoration="normal" x="491.53429311033256" y="68.07003586960326" text-anchor="start" dominant-baseline="central"></text><path fill="#68aeba" stroke="#c7b7c7" paint-order="stroke fill markers" d=" M 664.522458790806 273.5434086506683 A 15 15 0 1 1 664.5224512908067 273.5284086531683 Z" stroke-miterlimit="10" stroke-width="2"/><g><text fill="none" stroke="#68aeba" font-family="sans-serif" font-size="16px" font-style="normal" font-weight="bold" text-decoration="normal" x="645.073240040806" y="273.5434086506683" text-anchor="start" dominant-baseline="central" stroke-linejoin="round" stroke-miterlimit="10" stroke-width="4">8</text></g><text fill="#f0d543" stroke="none" font-family="sans-serif" font-size="16px" font-style="normal" font-weight="bold" text-decoration="normal" x="645.073240040806" y="273.5434086506683" text-anchor="start" dominant-baseline="central">8</text><text fill="#68aeba" stroke="none" font-family="sans-serif" font-size="12px" font-style="normal" font-weight="normal" text-decoration="normal" x="649.522458790806" y="248.5434086506683" text-anchor="start" dominant-baseline="central"></text><path fill="#68aeba" stroke="#c7b7c7" paint-order="stroke fill markers" d=" M 827.8360682582615 73.54340865066834 A 15 15 0 1 1 827.8360607582622 73.52840865316833 Z" stroke-miterlimit="10" stroke-width="2"/><g><text fill="none" stroke="#68aeba" font-family="sans-serif" font-size="16px" font-style="normal" font-weight="bold" text-decoration="normal" x="808.3868495082615" y="73.54340865066834" text-anchor="start" dominant-baseline="central" stroke-linejoin="round" stroke-miterlimit="10" stroke-width="4">9</text></g><text fill="#f0d543" stroke="none" font-family="sans-serif" font-size="16px" font-style="normal" font-weight="bold" text-decoration="normal" x="808.3868495082615" y="73.54340865066834" text-anchor="start" dominant-baseline="central">9</text><text fill="#68aeba" stroke="none" font-family="sans-serif" font-size="12px" font-style="normal" font-weight="normal" text-decoration="normal" x="812.8360682582615" y="48.54340865066834" text-anchor="start" dominant-baseline="central"></text><path fill="#68aeba" stroke="#c7b7c7" paint-order="stroke fill markers" d=" M 838.3796066497746 433.1852629274792 A 15 15 0 1 1 838.3795991497752 433.1702629299792 Z" stroke-miterlimit="10" stroke-width="2"/><g><text fill="none" stroke="#68aeba" font-family="sans-serif" font-size="16px" font-style="normal" font-weight="bold" text-decoration="normal" x="814.4811691497746" y="433.1852629274792" text-anchor="start" dominant-baseline="central" stroke-linejoin="round" stroke-miterlimit="10" stroke-width="4">10</text></g><text fill="#f0d543" stroke="none" font-family="sans-serif" font-size="16px" font-style="normal" font-weight="bold" text-decoration="normal" x="814.4811691497746" y="433.1852629274792" text-anchor="start" dominant-baseline="central">10</text><text fill="#68aeba" stroke="none" font-family="sans-serif" font-size="12px" font-style="normal" font-weight="normal" text-decoration="normal" x="823.3796066497746" y="408.1852629274792" text-anchor="start" dominant-baseline="central"></text><path fill="#68aeba" stroke="#c7b7c7" paint-order="stroke fill markers" d=" M 987.9999980926514 353.7142791748047 A 15 15 0 1 1 987.999990592652 353.6992791773047 Z" stroke-miterlimit="10" stroke-width="2"/><g><text fill="none" stroke="#68aeba" font-family="sans-serif" font-size="16px" font-style="normal" font-weight="bold" text-decoration="normal" x="964.5429668426514" y="353.7142791748047" text-anchor="start" dominant-baseline="central" stroke-linejoin="round" stroke-miterlimit="10" stroke-width="4">11</text></g><text fill="#f0d543" stroke="none" font-family="sans-serif" font-size="16px" font-style="normal" font-weight="bold" text-decoration="normal" x="964.5429668426514" y="353.7142791748047" text-anchor="start" dominant-baseline="central">11</text><text fill="#68aeba" stroke="none" font-family="sans-serif" font-size="12px" font-style="normal" font-weight="normal" text-decoration="normal" x="972.9999980926514" y="328.7142791748047" text-anchor="start" dominant-baseline="central"></text><path fill="#68aeba" stroke="#c7b7c7" paint-order="stroke fill markers" d=" M 1005.9999980926514 498.7142791748047 A 15 15 0 1 1 1005.999990592652 498.6992791773047 Z" stroke-miterlimit="10" stroke-width="2"/><g><text fill="none" stroke="#68aeba" font-family="sans-serif" font-size="16px" font-style="normal" font-weight="bold" text-decoration="normal" x="982.1015605926514" y="498.7142791748047" text-anchor="start" dominant-baseline="central" stroke-linejoin="round" stroke-miterlimit="10" stroke-width="4">12</text></g><text fill="#f0d543" stroke="none" font-family="sans-serif" font-size="16px" font-style="normal" font-weight="bold" text-decoration="normal" x="982.1015605926514" y="498.7142791748047" text-anchor="start" dominant-baseline="central">12</text><text fill="#68aeba" stroke="none" font-family="sans-serif" font-size="12px" font-style="normal" font-weight="normal" text-decoration="normal" x="990.9999980926514" y="473.7142791748047" text-anchor="start" dominant-baseline="central"></text><path fill="#68aeba" stroke="#c7b7c7" paint-order="stroke fill markers" d=" M 693.5165416310426 562.3008051003724 A 15 15 0 1 1 693.5165341310433 562.2858051028724 Z" stroke-miterlimit="10" stroke-width="2"/><g><text fill="none" stroke="#68aeba" font-family="sans-serif" font-size="16px" font-style="normal" font-weight="bold" text-decoration="normal" x="674.0673228810426" y="562.3008051003724" text-anchor="start" dominant-baseline="central" stroke-linejoin="round" stroke-miterlimit="10" stroke-width="4">3</text></g><text fill="#f0d543" stroke="none" font-family="sans-serif" font-size="16px" font-style="normal" font-weight="bold" text-decoration="normal" x="674.0673228810426" y="562.3008051003724" text-anchor="start" dominant-baseline="central">3</text><text fill="#68aeba" stroke="none" font-family="sans-serif" font-size="12px" font-style="normal" font-weight="normal" text-decoration="normal" x="678.5165416310426" y="537.3008051003724" text-anchor="start" dominant-baseline="central"></text><path fill="#68aeba" stroke="#c7b7c7" paint-order="stroke fill markers" d=" M 434.34494399790657 796.6203317275913 A 15 15 0 1 1 434.3449364979072 796.6053317300913 Z" stroke-miterlimit="10" stroke-width="2"/><g><text fill="none" stroke="#68aeba" font-family="sans-serif" font-size="16px" font-style="normal" font-weight="bold" text-decoration="normal" x="414.89572524790657" y="796.6203317275913" text-anchor="start" dominant-baseline="central" stroke-linejoin="round" stroke-miterlimit="10" stroke-width="4">4</text></g><text fill="#f0d543" stroke="none" font-family="sans-serif" font-size="16px" font-style="normal" font-weight="bold" text-decoration="normal" x="414.89572524790657" y="796.6203317275913" text-anchor="start" dominant-baseline="central">4</text><text fill="#68aeba" stroke="none" font-family="sans-serif" font-size="12px" font-style="normal" font-weight="normal" text-decoration="normal" x="419.34494399790657" y="771.6203317275913" text-anchor="start" dominant-baseline="central"></text><path fill="#68aeba" stroke="#c7b7c7" paint-order="stroke fill markers" d=" M 978.1319262464272 795.4368997749286 A 15 15 0 1 1 978.1319187464278 795.4218997774286 Z" stroke-miterlimit="10" stroke-width="2"/><g><text fill="none" stroke="#68aeba" font-family="sans-serif" font-size="16px" font-style="normal" font-weight="bold" text-decoration="normal" x="958.6827074964272" y="795.4368997749286" text-anchor="start" dominant-baseline="central" stroke-linejoin="round" stroke-miterlimit="10" stroke-width="4">5</text></g><text fill="#f0d543" stroke="none" font-family="sans-serif" font-size="16px" font-style="normal" font-weight="bold" text-decoration="normal" x="958.6827074964272" y="795.4368997749286" text-anchor="start" dominant-baseline="central">5</text><text fill="#68aeba" stroke="none" font-family="sans-serif" font-size="12px" font-style="normal" font-weight="normal" text-decoration="normal" x="963.1319262464272" y="770.4368997749286" text-anchor="start" dominant-baseline="central"></text><path fill="#68aeba" stroke="#c7b7c7" paint-order="stroke fill markers" d=" M 639.9999980926514 422.7142791748047 A 15 15 0 1 1 639.999990592652 422.6992791773047 Z" stroke-miterlimit="10" stroke-width="2"/><g><text fill="none" stroke="#68aeba" font-family="sans-serif" font-size="16px" font-style="normal" font-weight="bold" text-decoration="normal" x="620.5507793426514" y="422.7142791748047" text-anchor="start" dominant-baseline="central" stroke-linejoin="round" stroke-miterlimit="10" stroke-width="4">6</text></g><text fill="#f0d543" stroke="none" font-family="sans-serif" font-size="16px" font-style="normal" font-weight="bold" text-decoration="normal" x="620.5507793426514" y="422.7142791748047" text-anchor="start" dominant-baseline="central">6</text><text fill="#68aeba" stroke="none" font-family="sans-serif" font-size="12px" font-style="normal" font-weight="normal" text-decoration="normal" x="624.9999980926514" y="397.7142791748047" text-anchor="start" dominant-baseline="central"></text></g></g></svg>