<svg version="1.1" xmlns="http://www.w3.org/2000/svg" xmlns:xlink="http://www.w3.org/1999/xlink" width="694.4003030065264" height="609"><defs/><g><g transform="translate(-44.53570556640625,-105.32142639160156)"><rect fill="#FFFFFF" stroke="none" x="44.53570556640625" y="105.32142639160156" width="1121" height="747"/><rect fill="#ffffff" stroke="none" x="44.53570556640625" y="105.32142639160156" width="1121" height="747"/><path fill="none" stroke="#c7b7c7" paint-order="fill stroke markers" d=" M 597.2453550613525 653.6129487821571 L 514.8462313239869 227.88414280576833" stroke-miterlimit="10" stroke-width="4"/><path fill="#c7b7c7" stroke="none" paint-order="stroke fill markers" d=" M 513.32605607146 220.02990400104608 L 524.2206453812361 234.2182063579637 L 508.51216777179155 237.25855686301747 L 513.32605607146 220.02990400104608 Z"/><path fill="#68aeba" stroke="#c7b7c7" paint-order="fill stroke markers" d=" M 548.8364868164062 426.82142639160156 L 561.7349243164062 426.82142639160156 L 561.7349243164062 446.82142639160156 L 548.8364868164062 446.82142639160156 L 548.8364868164062 426.82142639160156 Z Z" stroke-miterlimit="10" stroke-width="2"/><text fill="#f0d543" stroke="none" font-family="sans-serif" font-size="16px" font-style="normal" font-weight="bold" text-decoration="normal" x="550.8364868164062" y="436.82142639160156" text-anchor="start" dominant-baseline="central">5</text><path fill="none" stroke="#c7b7c7" paint-order="fill stroke markers" d=" M 520.8369551443444 216.34935773261196 C 544.9277972354931 247.90314457494924 640.6103624650549 294.72322248718024 680.3078971936139 294.38282091966363" stroke-miterlimit="10" stroke-width="4"/><path fill="#c7b7c7" stroke="none" paint-order="stroke fill markers" d=" M 688.2913215441755 294.8975399098525 L 671.8097538528634 301.85152628003624 L 672.8391918332413 285.8846775789131 L 688.2913215441755 294.8975399098525 Z"/><path fill="#68aeba" stroke="#c7b7c7" paint-order="fill stroke markers" d=" M 592.2238059309669 258.1825263012196 L 605.1222434309669 258.1825263012196 L 605.1222434309669 278.1825263012196 L 592.2238059309669 278.1825263012196 L 592.2238059309669 258.1825263012196 Z Z" stroke-miterlimit="10" stroke-width="2"/><text fill="#f0d543" stroke="none" font-family="sans-serif" font-size="16px" font-style="normal" font-weight="bold" text-decoration="normal" x="594.2238059309669" y="268.1825263012196" text-anchor="start" dominant-baseline="central">3</text><path fill="none" stroke="#c7b7c7" paint-order="fill stroke markers" d=" M 693.7344559884682 283.29349505059105 C 669.6436138973194 251.73970820825377 573.9610486677576 204.91963029602283 534.2635139391986 205.2600318635395" stroke-miterlimit="10" stroke-width="4"/><path fill="#c7b7c7" stroke="none" paint-order="stroke fill markers" d=" M 526.280089588637 204.7453128733506 L 542.7616572799491 197.79132650316686 L 541.7322192995712 213.75817520428993 L 526.280089588637 204.7453128733506 Z"/><path fill="#68aeba" stroke="#c7b7c7" paint-order="fill stroke markers" d=" M 609.4491677018456 221.4603264819835 L 622.3476052018456 221.4603264819835 L 622.3476052018456 241.4603264819835 L 609.4491677018456 241.4603264819835 L 609.4491677018456 221.4603264819835 Z Z" stroke-miterlimit="10" stroke-width="2"/><text fill="#f0d543" stroke="none" font-family="sans-serif" font-size="16px" font-style="normal" font-weight="bold" text-decoration="normal" x="611.4491677018456" y="231.4603264819835" text-anchor="start" dominant-baseline="central">1</text><path fill="none" stroke="#c7b7c7" paint-order="fill stroke markers" d=" M 693.9127335552142 307.5034398399207 C 640.6290467791501 365.389487049391 582.2114551679606 568.2564244833968 596.5500808698984 645.6150022299303" stroke-miterlimit="10" stroke-width="4"/><path fill="#c7b7c7" stroke="none" paint-order="stroke fill markers" d=" M 597.6905274707359 653.5332963360265 L 587.4913401629644 638.8371547246717 L 603.327928375157 636.5562615229966 L 597.6905274707359 653.5332963360265 Z"/><path fill="#68aeba" stroke="#c7b7c7" paint-order="fill stroke markers" d=" M 613.4001725257672 463.30170263163774 L 626.2986100257672 463.30170263163774 L 626.2986100257672 483.30170263163774 L 613.4001725257672 483.30170263163774 L 613.4001725257672 463.30170263163774 Z Z" stroke-miterlimit="10" stroke-width="2"/><text fill="#f0d543" stroke="none" font-family="sans-serif" font-size="16px" font-style="normal" font-weight="bold" text-decoration="normal" x="615.4001725257672" y="473.30170263163774" text-anchor="start" dominant-baseline="central">1</text><path fill="none" stroke="#c7b7c7" paint-order="fill stroke markers" d=" M 495.6571047700441 210.80247867812665 C 436.66372108496535 233.713945544722 322.5733604806907 359.4935264466454 305.50650376291975 420.4351135146656" stroke-miterlimit="10" stroke-width="4"/><path fill="#c7b7c7" stroke="none" paint-order="stroke fill markers" d=" M 302.97518229799897 428.0240799555738 L 300.4488587869323 410.3148256088366 L 315.62679166874875 415.37746853867816 L 302.97518229799897 428.0240799555738 Z"/><path fill="#68aeba" stroke="#c7b7c7" paint-order="fill stroke markers" d=" M 376.57530468821295 294.96213513144687 L 389.47374218821295 294.96213513144687 L 389.47374218821295 314.96213513144687 L 376.57530468821295 314.96213513144687 L 376.57530468821295 294.96213513144687 Z Z" stroke-miterlimit="10" stroke-width="2"/><text fill="#f0d543" stroke="none" font-family="sans-serif" font-size="16px" font-style="normal" font-weight="bold" text-decoration="normal" x="378.57530468821295" y="304.96213513144687" text-anchor="start" dominant-baseline="central">5</text><path fill="none" stroke="#c7b7c7" paint-order="fill stroke markers" d=" M 494.76342556408093 200.44085639102025 L 317.5691255698942 156.14228139247354" stroke-miterlimit="10" stroke-width="4"/><path fill="#c7b7c7" stroke="none" paint-order="stroke fill markers" d=" M 309.80798556873157 154.20199639218288 L 327.27055057134754 150.32142639160156 L 323.3899805707662 165.84370639392688 L 309.80798556873157 154.20199639218288 Z"/><path fill="#68aeba" stroke="#c7b7c7" paint-order="fill stroke markers" d=" M 395.83648681640625 167.32142639160156 L 408.73492431640625 167.32142639160156 L 408.73492431640625 187.32142639160156 L 395.83648681640625 187.32142639160156 L 395.83648681640625 167.32142639160156 Z Z" stroke-miterlimit="10" stroke-width="2"/><text fill="#f0d543" stroke="none" font-family="sans-serif" font-size="16px" font-style="normal" font-weight="bold" text-decoration="normal" x="397.83648681640625" y="177.32142639160156" text-anchor="start" dominant-baseline="central">7</text><path fill="none" stroke="#c7b7c7" paint-order="fill stroke markers" d=" M 592.6847193298373 655.2421860629656 C 559.1710480916211 586.7907537706733 396.59651836915117 462.72372175503114 321.72716979238754 448.46379937022874" stroke-miterlimit="10" stroke-width="4"/><path fill="#c7b7c7" stroke="none" paint-order="stroke fill markers" d=" M 313.9371323131111 446.6429984279321 L 331.3380082139606 442.49456283324884 L 327.6964063293674 458.07463779180176 L 313.9371323131111 446.6429984279321 Z"/><path fill="#68aeba" stroke="#c7b7c7" paint-order="fill stroke markers" d=" M 462.50664614410175 520.0365232191945 L 475.40508364410175 520.0365232191945 L 475.40508364410175 540.0365232191945 L 462.50664614410175 540.0365232191945 L 462.50664614410175 520.0365232191945 Z Z" stroke-miterlimit="10" stroke-width="2"/><text fill="#f0d543" stroke="none" font-family="sans-serif" font-size="16px" font-style="normal" font-weight="bold" text-decoration="normal" x="464.50664614410175" y="530.0365232191945" text-anchor="start" dominant-baseline="central">1</text><path fill="none" stroke="#c7b7c7" paint-order="fill stroke markers" d=" M 289.4277131504124 429.99716392202396 C 264.14432269874885 386.8513705812818 151.6892336058657 313.6415351054969 102.00256466227384 307.9807714623825" stroke-miterlimit="10" stroke-width="4"/><path fill="#c7b7c7" stroke="none" paint-order="stroke fill markers" d=" M 94.12264616244074 306.5998715978057 L 111.26338302668371 301.4817528271262 L 108.50158329753013 317.24158982679234 L 94.12264616244074 306.5998715978057 Z"/><path fill="#68aeba" stroke="#c7b7c7" paint-order="fill stroke markers" d=" M 194.58075783074295 343.650637735817 L 207.47919533074295 343.650637735817 L 207.47919533074295 363.650637735817 L 194.58075783074295 363.650637735817 L 194.58075783074295 343.650637735817 Z Z" stroke-miterlimit="10" stroke-width="2"/><text fill="#f0d543" stroke="none" font-family="sans-serif" font-size="16px" font-style="normal" font-weight="bold" text-decoration="normal" x="196.58075783074295" y="353.650637735817" text-anchor="start" dominant-baseline="central">1</text><path fill="none" stroke="#c7b7c7" paint-order="fill stroke markers" d=" M 87.14369798240031 317.64568886117905 C 112.42708843406382 360.7914822019212 224.88217752694686 434.00131767770625 274.5688464705387 439.66208132082073" stroke-miterlimit="10" stroke-width="4"/><path fill="#c7b7c7" stroke="none" paint-order="stroke fill markers" d=" M 282.44876497037177 441.04298118539754 L 265.3080281061288 446.16109995607695 L 268.0698278352824 430.4012629564108 L 282.44876497037177 441.04298118539754 Z"/><path fill="#68aeba" stroke="#c7b7c7" paint-order="fill stroke markers" d=" M 169.09221580206966 383.99221504738614 L 181.99065330206966 383.99221504738614 L 181.99065330206966 403.99221504738614 L 169.09221580206966 403.99221504738614 L 169.09221580206966 383.99221504738614 Z Z" stroke-miterlimit="10" stroke-width="2"/><text fill="#f0d543" stroke="none" font-family="sans-serif" font-size="16px" font-style="normal" font-weight="bold" text-decoration="normal" x="171.09221580206966" y="393.99221504738614" text-anchor="start" dominant-baseline="central">7</text><path fill="none" stroke="#c7b7c7" paint-order="fill stroke markers" d=" M 93.97306751531418 301.17393928536023 C 144.59481386669927 293.91728371226395 257.37901842230804 215.75521471517084 281.9467417746621 170.903824290205" stroke-miterlimit="10" stroke-width="4"/><path fill="#c7b7c7" stroke="none" paint-order="stroke fill markers" d=" M 286.19635034967274 164.12585800530832 L 284.4750994845481 181.93139915011233 L 270.9191669147548 173.43218200009102 L 286.19635034967274 164.12585800530832 Z"/><path fill="#68aeba" stroke="#c7b7c7" paint-order="fill stroke markers" d=" M 193.91409627849734 237.06664485791114 L 206.81253377849734 237.06664485791114 L 206.81253377849734 257.0666448579111 L 193.91409627849734 257.0666448579111 L 193.91409627849734 237.06664485791114 Z Z" stroke-miterlimit="10" stroke-width="2"/><text fill="#f0d543" stroke="none" font-family="sans-serif" font-size="16px" font-style="normal" font-weight="bold" text-decoration="normal" x="195.91409627849734" y="247.06664485791114" text-anchor="start" dominant-baseline="central">1</text><path fill="none" stroke="#c7b7c7" paint-order="fill stroke markers" d=" M 278.5983436174983 153.46891349784292 C 227.9765972661132 160.72556907093917 115.19239271050449 238.88763806803235 90.62466935815044 283.73902849299816" stroke-miterlimit="10" stroke-width="4"/><path fill="#c7b7c7" stroke="none" paint-order="stroke fill markers" d=" M 86.37506078313979 290.5169947778948 L 88.09631164826442 272.7114536330908 L 101.65224421805775 281.2106707831121 L 86.37506078313979 290.5169947778948 Z"/><path fill="#68aeba" stroke="#c7b7c7" paint-order="fill stroke markers" d=" M 165.7588773543152 197.57620792529198 L 178.6573148543152 197.57620792529198 L 178.6573148543152 217.57620792529198 L 165.7588773543152 217.57620792529198 L 165.7588773543152 197.57620792529198 Z Z" stroke-miterlimit="10" stroke-width="2"/><text fill="#f0d543" stroke="none" font-family="sans-serif" font-size="16px" font-style="normal" font-weight="bold" text-decoration="normal" x="167.7588773543152" y="207.57620792529198" text-anchor="start" dominant-baseline="central">3</text><path fill="none" stroke="#c7b7c7" paint-order="fill stroke markers" d=" M 287.88627103208876 164.98591539193788 C 262.3141029566604 216.32989912070906 262.5536800501577 370.24206176027394 288.28556618791765 421.5061864578794" stroke-miterlimit="10" stroke-width="4"/><path fill="#c7b7c7" stroke="none" paint-order="stroke fill markers" d=" M 291.4883349660351 428.8370985535136 L 277.751885314166 417.37804314036265 L 292.41370950543444 410.97250558412776 L 291.4883349660351 428.8370985535136 Z"/><path fill="#68aeba" stroke="#c7b7c7" paint-order="fill stroke markers" d=" M 263.44924551194373 287.1816617677717 L 276.34768301194373 287.1816617677717 L 276.34768301194373 307.1816617677717 L 263.44924551194373 307.1816617677717 L 263.44924551194373 287.1816617677717 Z Z" stroke-miterlimit="10" stroke-width="2"/><text fill="#f0d543" stroke="none" font-family="sans-serif" font-size="16px" font-style="normal" font-weight="bold" text-decoration="normal" x="265.44924551194373" y="297.1816617677717" text-anchor="start" dominant-baseline="central">3</text><path fill="none" stroke="#c7b7c7" paint-order="fill stroke markers" d=" M 304.6851401007238 428.6569373912653 C 330.2573081761521 377.31295366249407 330.0177310826546 223.40079102292918 304.2858449448947 172.13666632532383" stroke-miterlimit="10" stroke-width="4"/><path fill="#c7b7c7" stroke="none" paint-order="stroke fill markers" d=" M 301.0830761667772 164.80575422968963 L 314.81952581864635 176.26480964284056 L 300.1577016273779 182.6703471990755 L 301.0830761667772 164.80575422968963 Z"/><path fill="#68aeba" stroke="#c7b7c7" paint-order="fill stroke markers" d=" M 316.22372812086866 286.46119101543144 L 329.12216562086866 286.46119101543144 L 329.12216562086866 306.46119101543144 L 316.22372812086866 306.46119101543144 L 316.22372812086866 286.46119101543144 Z Z" stroke-miterlimit="10" stroke-width="2"/><text fill="#f0d543" stroke="none" font-family="sans-serif" font-size="16px" font-style="normal" font-weight="bold" text-decoration="normal" x="318.22372812086866" y="296.46119101543144" text-anchor="start" dominant-baseline="central">1</text><path fill="none" stroke="#c7b7c7" paint-order="fill stroke markers" d=" M 305.8866918029753 457.4006667202375 C 339.40036304119155 525.8520990125298 501.9748927636614 649.919131028172 576.844241340425 664.1790534129744" stroke-miterlimit="10" stroke-width="4"/><path fill="#c7b7c7" stroke="none" paint-order="stroke fill markers" d=" M 584.6342788197014 665.999854355271 L 567.2334029188519 670.1482899499542 L 570.8750048034451 654.5682149914014 L 584.6342788197014 665.999854355271 Z"/><path fill="#68aeba" stroke="#c7b7c7" paint-order="fill stroke markers" d=" M 423.16632748871086 572.6063295640088 L 436.06476498871086 572.6063295640088 L 436.06476498871086 592.6063295640088 L 423.16632748871086 592.6063295640088 L 423.16632748871086 572.6063295640088 Z Z" stroke-miterlimit="10" stroke-width="2"/><text fill="#f0d543" stroke="none" font-family="sans-serif" font-size="16px" font-style="normal" font-weight="bold" text-decoration="normal" x="425.16632748871086" y="582.6063295640088" text-anchor="start" dominant-baseline="central">7</text><path fill="none" stroke="#c7b7c7" paint-order="fill stroke markers" d=" M 312.9143063627684 436.8403741050764 C 371.9076900478472 413.9289072384811 485.9980506521219 288.1493263365578 503.0649073698929 227.20773926853758" stroke-miterlimit="10" stroke-width="4"/><path fill="#c7b7c7" stroke="none" paint-order="stroke fill markers" d=" M 505.59622883481364 219.61877282762933 L 508.1225523458804 237.32802717436655 L 492.944619464064 232.2653842445251 L 505.59622883481364 219.61877282762933 Z"/><path fill="#68aeba" stroke="#c7b7c7" paint-order="fill stroke markers" d=" M 419.09766894459955 332.6807176517563 L 431.99610644459955 332.6807176517563 L 431.99610644459955 352.6807176517563 L 419.09766894459955 352.6807176517563 L 419.09766894459955 332.6807176517563 Z Z" stroke-miterlimit="10" stroke-width="2"/><text fill="#f0d543" stroke="none" font-family="sans-serif" font-size="16px" font-style="normal" font-weight="bold" text-decoration="normal" x="421.09766894459955" y="342.6807176517563" text-anchor="start" dominant-baseline="central">3</text><path fill="none" stroke="#c7b7c7" paint-order="fill stroke markers" d=" M 610.6586775775978 657.1394129432821 C 663.942364353662 599.2533657338118 722.3599559648518 396.3864282998063 708.0213302629141 319.02785055327286" stroke-miterlimit="10" stroke-width="4"/><path fill="#c7b7c7" stroke="none" paint-order="stroke fill markers" d=" M 706.8808836620766 311.10955644717666 L 717.0800709698478 325.8056980585316 L 701.2434827576553 328.0865912602066 L 706.8808836620766 311.10955644717666 Z"/><path fill="#68aeba" stroke="#c7b7c7" paint-order="fill stroke markers" d=" M 674.2649886070451 481.3411501515653 L 695.1790511070451 481.3411501515653 L 695.1790511070451 501.3411501515653 L 674.2649886070451 501.3411501515653 L 674.2649886070451 481.3411501515653 Z Z" stroke-miterlimit="10" stroke-width="2"/><text fill="#f0d543" stroke="none" font-family="sans-serif" font-size="16px" font-style="normal" font-weight="bold" text-decoration="normal" x="676.2649886070451" y="491.3411501515653" text-anchor="start" dominant-baseline="central">11</text><path fill="none" stroke="#c7b7c7" paint-order="fill stroke markers" d=" M 506.35703307564035 219.83160151828207 C 479.33121948357444 313.8258006318111 527.262305798851 571.8428548147598 586.2421769344347 649.8600251565299" stroke-miterlimit="10" stroke-width="4"/><path fill="#c7b7c7" stroke="none" paint-order="stroke fill markers" d=" M 590.8536020547878 656.3972079105438 L 575.0935690600678 647.9342675228689 L 588.1679345680956 638.7114172821629 L 590.8536020547878 656.3972079105438 Z"/><path fill="#68aeba" stroke="#c7b7c7" paint-order="fill stroke markers" d=" M 509.41367833579443 434.451647387849 L 522.3121158357944 434.451647387849 L 522.3121158357944 454.451647387849 L 509.41367833579443 454.451647387849 L 509.41367833579443 434.451647387849 Z Z" stroke-miterlimit="10" stroke-width="2"/><text fill="#f0d543" stroke="none" font-family="sans-serif" font-size="16px" font-style="normal" font-weight="bold" text-decoration="normal" x="511.41367833579443" y="444.451647387849" text-anchor="start" dominant-baseline="central">1</text><path fill="#68aeba" stroke="#c7b7c7" paint-order="stroke fill markers" d=" M 309.28570556640625 150.32142639160156 A 15 15 0 1 1 309.2856980664069 150.30642639410155 Z" stroke-miterlimit="10" stroke-width="2"/><g><text fill="none" stroke="#68aeba" font-family="sans-serif" font-size="16px" font-style="normal" font-weight="bold" text-decoration="normal" x="289.83648681640625" y="150.32142639160156" text-anchor="start" dominant-baseline="central" stroke-linejoin="round" stroke-miterlimit="10" stroke-width="4">0</text></g><text fill="#f0d543" stroke="none" font-family="sans-serif" font-size="16px" font-style="normal" font-weight="bold" text-decoration="normal" x="289.83648681640625" y="150.32142639160156" text-anchor="start" dominant-baseline="central">0</text><text fill="#68aeba" stroke="none" font-family="sans-serif" font-size="12px" font-style="normal" font-weight="normal" text-decoration="normal" x="294.28570556640625" y="125.32142639160156" text-anchor="start" dominant-baseline="central"></text><path fill="#68aeba" stroke="#c7b7c7" paint-order="stroke fill markers" d=" M 93.28570556640625 304.32142639160156 A 15 15 0 1 1 93.28569806640688 304.30642639410155 Z" stroke-miterlimit="10" stroke-width="2"/><g><text fill="none" stroke="#68aeba" font-family="sans-serif" font-size="16px" font-style="normal" font-weight="bold" text-decoration="normal" x="73.83648681640625" y="304.32142639160156" text-anchor="start" dominant-baseline="central" stroke-linejoin="round" stroke-miterlimit="10" stroke-width="4">1</text></g><text fill="#f0d543" stroke="none" font-family="sans-serif" font-size="16px" font-style="normal" font-weight="bold" text-decoration="normal" x="73.83648681640625" y="304.32142639160156" text-anchor="start" dominant-baseline="central">1</text><text fill="#68aeba" stroke="none" font-family="sans-serif" font-size="12px" font-style="normal" font-weight="normal" text-decoration="normal" x="78.28570556640625" y="279.32142639160156" text-anchor="start" dominant-baseline="central"></text><path fill="#68aeba" stroke="#c7b7c7" paint-order="stroke fill markers" d=" M 313.28570556640625 443.32142639160156 A 15 15 0 1 1 313.2856980664069 443.30642639410155 Z" stroke-miterlimit="10" stroke-width="2"/><g><text fill="none" stroke="#68aeba" font-family="sans-serif" font-size="16px" font-style="normal" font-weight="bold" text-decoration="normal" x="293.83648681640625" y="443.32142639160156" text-anchor="start" dominant-baseline="central" stroke-linejoin="round" stroke-miterlimit="10" stroke-width="4">2</text></g><text fill="#f0d543" stroke="none" font-family="sans-serif" font-size="16px" font-style="normal" font-weight="bold" text-decoration="normal" x="293.83648681640625" y="443.32142639160156" text-anchor="start" dominant-baseline="central">2</text><text fill="#68aeba" stroke="none" font-family="sans-serif" font-size="12px" font-style="normal" font-weight="normal" text-decoration="normal" x="298.28570556640625" y="418.32142639160156" text-anchor="start" dominant-baseline="central"></text><path fill="#68aeba" stroke="#c7b7c7" paint-order="stroke fill markers" d=" M 525.2857055664062 204.32142639160156 A 15 15 0 1 1 525.2856980664069 204.30642639410155 Z" stroke-miterlimit="10" stroke-width="2"/><g><text fill="none" stroke="#68aeba" font-family="sans-serif" font-size="16px" font-style="normal" font-weight="bold" text-decoration="normal" x="505.83648681640625" y="204.32142639160156" text-anchor="start" dominant-baseline="central" stroke-linejoin="round" stroke-miterlimit="10" stroke-width="4">3</text></g><text fill="#f0d543" stroke="none" font-family="sans-serif" font-size="16px" font-style="normal" font-weight="bold" text-decoration="normal" x="505.83648681640625" y="204.32142639160156" text-anchor="start" dominant-baseline="central">3</text><text fill="#68aeba" stroke="none" font-family="sans-serif" font-size="12px" font-style="normal" font-weight="normal" text-decoration="normal" x="510.28570556640625" y="179.32142639160156" text-anchor="start" dominant-baseline="central"></text><path fill="#68aeba" stroke="#c7b7c7" paint-order="stroke fill markers" d=" M 719.2857055664062 295.32142639160156 A 15 15 0 1 1 719.2856980664069 295.30642639410155 Z" stroke-miterlimit="10" stroke-width="2"/><g><text fill="none" stroke="#68aeba" font-family="sans-serif" font-size="16px" font-style="normal" font-weight="bold" text-decoration="normal" x="699.8364868164062" y="295.32142639160156" text-anchor="start" dominant-baseline="central" stroke-linejoin="round" stroke-miterlimit="10" stroke-width="4">4</text></g><text fill="#f0d543" stroke="none" font-family="sans-serif" font-size="16px" font-style="normal" font-weight="bold" text-decoration="normal" x="699.8364868164062" y="295.32142639160156" text-anchor="start" dominant-baseline="central">4</text><text fill="#68aeba" stroke="none" font-family="sans-serif" font-size="12px" font-style="normal" font-weight="normal" text-decoration="normal" x="704.2857055664062" y="270.32142639160156" text-anchor="start" dominant-baseline="central"></text><path fill="#68aeba" stroke="#c7b7c7" paint-order="stroke fill markers" d=" M 615.2857055664062 669.3214263916016 A 15 15 0 1 1 615.2856980664069 669.3064263941015 Z" stroke-miterlimit="10" stroke-width="2"/><g><text fill="none" stroke="#68aeba" font-family="sans-serif" font-size="16px" font-style="normal" font-weight="bold" text-decoration="normal" x="595.8364868164062" y="669.3214263916016" text-anchor="start" dominant-baseline="central" stroke-linejoin="round" stroke-miterlimit="10" stroke-width="4">5</text></g><text fill="#f0d543" stroke="none" font-family="sans-serif" font-size="16px" font-style="normal" font-weight="bold" text-decoration="normal" x="595.8364868164062" y="669.3214263916016" text-anchor="start" dominant-baseline="central">5</text><text fill="#68aeba" stroke="none" font-family="sans-serif" font-size="12px" font-style="normal" font-weight="normal" text-decoration="normal" x="600.2857055664062" y="644.3214263916016" text-anchor="start" dominant-baseline="central"></text></g></g></svg>